<mxfile host="app.diagrams.net" modified="2021-12-04T05:54:06.676Z" agent="5.0 (Windows NT 10.0; Win64; x64) AppleWebKit/537.36 (KHTML, like Gecko) Chrome/96.0.4664.45 Safari/537.36" etag="mlVatKDqbHNcGtFSbJT3" version="15.8.9" type="github">
  <diagram id="Iq4neh6HpIKrQGh6_a-Z" name="Page-1">
    <mxGraphModel dx="1422" dy="705" grid="1" gridSize="10" guides="1" tooltips="1" connect="1" arrows="1" fold="1" page="1" pageScale="1" pageWidth="850" pageHeight="1100" math="0" shadow="0">
      <root>
        <mxCell id="0" />
        <mxCell id="1" parent="0" />
        <mxCell id="CacdrGUA_TcDpwZ-MOee-2" value="" style="shape=image;verticalLabelPosition=bottom;labelBackgroundColor=#ffffff;verticalAlign=top;aspect=fixed;imageAspect=0;image=data:image/png,iVBORw0KGgoAAAANSUhEUgAAANcAAAKxCAYAAADATznbAAAAAXNSR0IArs4c6QAAAARnQU1BAACxjwv8YQUAAAAJcEhZcwAADsMAAA7DAcdvqGQAALAfSURBVHhe7f0JnCXZVd+Jnxf5ttwrl9q61Hu3etHSAkkIZBCLDdgIGxsGg4Rlf+w/3o0xtv9/j5kBAzZgNrOZGRjzHzxmLMb4DwaDWI3Q2tpaLbWk7laru6vX2pesXN+e+T/fc+6NF5mVWV1ZW1dX3F/kyXvjxo0b8eLF751zz90qH/yZ79yo1WvS73bloU98XBr1ujR1v9Npabwm0xMT0ut1pav7L77wvLz+ta+VXrcjY2Oj8uCPfqUkJCRsj2x0dEwquo2Ojcm+ffvlpoM3yezsrDQadckqmYxUq1IdGZERlSzL7KSNDUT/JSQk7IhsdXVFzp07Zxprfn5epqenZEK11f79B5Rs+6Req0lVZWSkKiPZZoIlJCTsjGxsbFyazab0BwNptdbUBOwZgWpKKARiVVV7jYxkll6poOeS5kpIeClkXepP42Nm9q2srEq73ZbB+sBIlGUVWV9fl4ESr1qtyYZuoK5aLpErIeHCyNbXN8zcg0zrSiLINCSO6iiNb2ys23HSkYqSLiEh4cKwChTEMViI2Rf3Ef1nXFNiKREjwUJiQkLCDshyXnkQ+WWh169UY2kSGm5dNVjUbMavhISEHaGaCxZpDCIRGizBt5CIabg+cHJBtGHehISE7WCay2kEnExOLRXigURoKxwdrrnWPTEhIWFHbK+5wr4dIl13IRcaC8+h170sZ0JCwg5wh4bRx2NFWLqSy9wXECrWt5IzIyHhJUFLFsxRGmk9CoFPTivTWuyhpTAEybG+QYYRl4SEhB1R+cjP/a0NOuYe2H9APvaxj8me6SmZnppSlaYEUx6tra7J6VOnhF5PTz35pNx6y61y+223qXnYlwNnfjgUk5BwY+N3xtZC7OKRjY01rfd7tars2RhY7/hOqy1ra6vSarWsWxSdd7OsKt3uQFrtrmowukHVQhEJCQnbIcPmGzonMPlUY6mxSD/C6MCgbyEmIhqu3W5Z/8NU70pIuDCs+xO1KQCBIJWLd4mCeYS44AFtXfQ/7KqGS0hI2BlZvVE3zQShIBkk6vf7pqWIZyMjpqUGSip6yVc03+rqqrTVZExISNgZGa3IaCbTUpiF2Ij8qdArvlodsUGToF5vyIiSq611sqS5EhIujKzT6aiW6ruWUoJVa1VBmzHGq16r2yBJ124jJgBPYUJCwoWR9ft0aRqopvK6FXUtzMSakiwLAyRHm6OmtawL1GBgpiGDKBMSygJafne7ZZBoWOfCHNR6l9av0GYIhEOLobVwfpCXof9uRiYkJOwEYxSjkGGaMsaH99drRrboIYRQODnIMjc/Jw0l29rqqh1LSCgFgktiN+LqqgBLV5KhmPr9nqysLJt3EHLRvxBnxsrysrV1JSSUBwXWXKRUHvkP/2ADB8Xc7Jx85CMPyuzMrExNTkqvS4Nxx8xEZoZaPHdOvvDEF+TQTTfZHBpouHv7P6uFXB8YvWNMxl49Ls1bR6W2ry7VqapUqnzIhFcCNvob0l/qS/dkR9rPtWTtC6vSOrxzlyOztK4h3jPeDrGLRz4S2e/Vd/zGqWs1ZGpqysiEaUhe4nvn55WEM5b35cbMV83Krf/yTnnVd90qs18/L2P3jkttVuuEiVivKPB98b2N3zshc1+/V27+rtvkNv1eZ75qLuTYDB+b4dv1CiWXvoSYgWwehVcasj+cTg1NRT9D2rcgGvJyYvKN03Lb990l89+0X+qqqRJuPNT3NWSvfr+36/c8+cYpp5JaUnGLGKZcRaIFXuxGKp/9//6jDepWc3NqFj74EdNI05NTRiJGHNPOhXobaJ3rkw99Us3HWbn55puNXPPHv09LufbY91cPyvSX7Ql7jv5CS87+zudl8UPPydrnTkjnyJKst1K98JWCbLQmjUNTMvba/TL95WqF/MV7pTozGo46Fj5yVo79+hGpKIfcugqh/fl+xNb9y8V7JjohdvEI5OrLvJGLOteM1rmmrM7FsH66PfV7PRkdHZUnHv+8DUdhZl56auw//YOhmGsDTIeb/l83m+kX0T22LEd+5kE58SufDCkJNwr2/803yqF/8lapH5wMKSLLn1+SZ3/5sFT6eOPcH0cYm4aKpLqSBPu9SyCX1bnCfXE3vmOhz/i0urIix44dkzNnzlgWMw+VjGsvQ9/CrcQ6+Z8+JZ/+0l9MxLpBwffK98v3HDF575Tc+p23S0+37kZP9Odf+roNZP080/CqmokXgazPsBK1Y3sMLanhBVSp163DLn0LafOqjmTS67RtpRNGLm8M9MP0ds/kywGmYJFYz/3An8jhf/77yfS7wcH3y/fM9x0xde+03PRXb5bORlulK70NfR9NlGoqTAEYiXXFCBYUzm4kY4C/VJQ8NiiyJiOqmZi6GnJZvWpuVu6843bZs2dK6109WVdiVUcq0qhdO4cGzotiHYsHfex/+1jYSygD+L6LBNv/1gMy+aZpaW20hiQLGmxdK2Xm+FABEOyKkWwXyHCt0+MCryANw2tra9LuePuWsU/TWfWELlA2pZqmY0ui1a4V5r5hb4i5KZiIVU7wvRdNxNvefoesrq/JmhKsta4kW2+rFuu6FtNtI5DsSoD62263zEYVB5bTKRevoHsJfagJRKKta3x83PLQJYpzmALgWoB2LNo/AM6LZ7/vf1g8oZzg++c9AGNzY3LT19wkqxsQTJWCdHTrmhaDXJiIRYJda+2V4XKngy6wBRaUTOzT5enUqVNy/PgJ1WRtI5V1gQoEs76G1wBTXzZsrMYrmOpY5QbfP+9BxK1vvV1W1leUYKuqxValrSZily04O64YwTDUdikZDgxrMFbzLzYMMznNiRMn5Mknn5RHH3tUnnvueVsgD42FmYiTAzPxaoMuTbGBmHas5BVMALwHvA9g+sC0TNw5YdrLNJiaiZiI3Q3VYYFg0cERiXXJBNslMhqQTQsps2vVmrVnjY2NGXkwDdFsaDFCxnpxWwxJib8EVxP0FYyggTghIaL4Puy754CTCoKp9oJcbSOXexLNzUHL8zVGNugzUNLJglaCXPPze+W2226Tu+66Sw7ddEjGNA3HB30NMQkhGvWzqw064UbQ8yIhIaL4Puy7fZ/VuVaVVC01C32j/tVRYqn2UoKtRxf95ZqHu0CGhmo0GuZ6j+O3WKmf9ZDp5rR//37TYpiMEAwNhxnJ0P+rDXq3R9ClKSEhovg+zByYMROwjddQaeXewzXprCu9VHuhu9a3aWS+2sha7ZbWpxblzOkz0lGNhBew29EbUlMREqHJircTp1VjbNfVBsNGIugrmJAQUXwfJqYmrMcGW0fNwfa6ai4NieemIdprC8F2R7RtPBYvIVrn6svi4jmVRUtCbXZ7XVlZWVESdWzCGrsN1WrRS0iIir3aKA4bSV7ChCKK7wPvKI4LtJdrq0As8xpCruDYgFzDV2pXGFLm4iVDMxlZ1gc+xF8FhwWzQtG30GaAytRkVNJBPI5jHpKW8FJ4uzxw8nvlS5En3ykHQ2rClUfs+kRPQ9dg3t5l5NLNm5Wpd/lkTLvTWort2PMSkkEevIBopP7Ah/L3iKuY213JhNfQlw8Sq5/FOtorHXd8OLz4O7z8L3X8ZcPP/p3hfZ38p3L/3wvpES91/AYEZEEz9ZU8mIBQDGIRs32VgVpbGIb83y23LgUZDcfMAEU9irpWNPcgFE4MjlP3QrvhVaSNyzXXedNvvLIxfZvs2zRrwdtl8u4QvWS8Rx7Z9yPyUeTud8uxkHpl0ZSpd709xB13vGk+xMoDCANxXD9BMCcZpiIEsw69kApW6fts2sX2Lo5lsUvTbjZlSMWIhKYCo8F7iMbiHkhHjQ7MdFw3bYbE8TM3EkbfNHxJD/7mPbJ5qN51jLsPyR0hKn/vnTJ72T8Krzy4i93NPWhkBCtorfWKvr9GMM1RcMlfNHjddyk2ngvSwCRIVVdhwhq8gkxQ01rzZYTIA8Eg+sWy/ZWD09J6UoO77wkm1Ftk5nVNkcW2fj3bQF/gN+VmV1H+zvAlNxTqXB+OxH2L3P9kSMPU3FLWm37zLSHfxaH15Gn9Py+z4byDX3dAqqL3vWi722O7+99k9u7mHgt5i5+/cM5uP9OlwqnlG0QybQWpIJvF7Ygd3y2KGulit6zX9Y67TPQJWOju8OHDcvToUfMg0jvDO/PqbUEy7NaBm443EpZ/9VklUlPGvk5fhL93p4xN64v7e0+o5b4NfvHd8lA094KchJz6ku87j2AXgJqit/4zkSOU8WuQRKT65X9WHtjNpFoPPSJLSqTq6+5UcoQfhSefkLMnw/EtOPib/1S+9Iduk+ris/Jc8d65l+3u/Urc4zUC72jUX+goaGTva9g2aSxVKrsiWUEjXaxknS6DHn0CGrTVs889J48//nk5cuSIrKyuSKfTtt4YRi4zDb33fH6TNwp+8WlZ4yX98gfkgXfpy6fabPm7w7GLwOGH/MWDYJMX++Lxgse62OMruZas3bybX/qPycJn215n/PADMsWPwkPvCce2QLXJoS/3PqGt3xvWAS9471fkHq8BYj2K91RJBHUQJ5fSyNIj+ch29d9fG3ICMP2oRzGei4bkpaUlWTh7Vgm2am1eeAsZoYwWw/lB4/ONhfCS6gs2Sp3lySNy2NJ3QsHkQ97x8jkRjv3RcXvpR+/mHi7wo3DfhP5oOEbfcX3c+9VA9AcEfWUbMcjne9dGMWR00mXSTyahYWgJDgxMRNKpf9WqVRmpjphmI5+N88KhYT8TNxbiSypaZ1n61R1+/RVmWp18wBwerV8LpmEwmV4WBK0L+h965CV+FBz5fW+RR3ahra83mDYKr6XTR99SJRrppq22kuoqcyyDLL2+EqvdkepIVfbv2ye33X6bvOpVr7JZeMcnJmR8bFyaofMuJMNFH4en3FDI61L/Th77xZB2HkK9BqjJdPK6eBk/Jo/d7eR46JsvMEq7YNYVPaOXh49Je4f63fUBpxUki+qA8Fpor4x6VIf2rfWBzMzMyN133y333Xufddrds2dPTiw8icytkWuuG62d66JReJmmJ3J3/cGbJ0LsOob+eBz5UJiW+W6tWxbrV8G7dymOitaJONXzhDSvowZrMwCDNovay8l2KYCSu5OMbky2eqSShq5QM7OzMjc/L9PT00qqps/+xPGwuiSVQghJHaysOPxn/sQ8dO4d9HrLodfZoesex77538lHvx/P6JZ6Fx7EXTpxIijTvaVNmfqhYnk3Dranz0vII//nd28cOXpETp08IXvn5uXWW25RbTVqdbC1lWVpra3JSFaxSUIff/RRmVdTkfFd/A7cuvbTWsTVw90/fV+IiZk8CQlFQOKI7/3bGtcf/pGKKotKVWq6NStNmaiMy9TIpExWpmQym5CxilphlYaMhM3NRahwYfzx7O6VSbbWWpNzCwvmHcQVj0ODdixzu6NSFQTuhifNLxI9MgkJCdvDXPFxbgwcFlU1DyEQabZEK8wu8IjFGUZGhvNtXE2wrEwEc4knJEQU34d+mGDp6iI39i5asqmpabnppptMmD6tq6RaXl6x9i40WOxH6HMVqiK1dZK9U+/VBus1RTBJf0JCRPF9WF70qdauJranz4Ulw3vCEBOAWYjmoo2LiUAnJidssXGcHhyj93yz0TSNdi0mBWUhtAhWv0hIiCi+D6dPnAqxq4itzLkIyahPYfbFOlSoZdl/r+iZQ9O7jgQrzU1Fz381wQqDESwrk5AQUXwfXjj8QohdX8hgDCTC/AO0B9B/0NoF6JdVIFUkHbgYD8vlgqU7I1ivKSEhovg+PPXYUyF2PkwJ6GtrCiGkXStkaKVM61GxUTh6BY1kRjRv07LGOBC01rXQXKyJG01DFkJjvaaEBN6DuDDeqeOn5Nknn7X4VmxPp0pBRVwe+v2urKyelVNnn5fnjz4qTxz+mDzy+J/Ixz792/K+j70bs9DnK8wbiY1cPn6LIf82MY1qsDjbE7dr5ApkvNpY/Mi5EBNbCC15DcsNvn/eg4hPfODjIRYQdQCi/1wneKRIqt3qscXlU0akXq9tApk+/sjvyAc/8evyvo++W9774H+S//HhX5E//MAvy++/75fk9/70f3dy+drHfjHIxGqSceyLmYgIW7xxvWsbZXkNsPC+M9I727U4Kwze9q//nMUTygm+/7jS5MLpBfnQH33I4iBaU7mVpQHvaXEDMYzBxeCjn/pt+cRn3iPPH3vc5L0P/qr8xh/8hLznA/9ePvTZX5XPHv1deb7zQVmc+Ixs3PycTL7+rIz87be/6Qd6qt6ipqILVCQO/31NroG02y1ZWV6RqclJ8ygyKWhj6Sst39VGf6Uvkw+463X8gYMyWFV1/Ikjtp9QHhz8B2+RQ9891Fq/8+7/LsdfPB72nFzWDiuZVDP6aOg7WqlLM2tYrwykntWlSt+MyoiRLG4vhe/5rXfJFw5/QnmwJs+++Bn57JN/IiMzazKnVb99XyRy05eJ3PxVIrd/vcid3yTy6m8NdS7jMmahXsO0VdBaRdF/dpH46/DSt3PlsPzwoi02HXHrD/xZe9AJ5QHfN997xMfVHPz0Rz/tO+Gd5FUmBlkYFJVrrQ0fIuX/A/x1vmi86m0ijf0d014Pffb3pTLeltf+dZFv+i8if/n/J/K1Py/y1u8VeeBvidz9DVqFeSPkUq2kKkv6vS6NXjark9W/4JNtFXds6L7NoZGN6N3rbY5cw26Zem1WcWex6Qge9B0/+RdSHewGB98v33ORWE8++gX5rf/038LeEKa5IJGF+h7rZj0I9Z0lbgpkw/NY/hBeDP7i/6ka6S/oOWFGwXXGGPdFarpf02Jgw1bJOqrmuq2WLJw5rRfekPHxMRltNizOS01v+U63r5W4gayt0ZDc0PsbkaqG1wx68yxSwSruS58fzryy769/kbzho38veRFvUPC98v3yPUdArF/9+V8NewH6rhqxlDi2YKNRSv9XqtaJl72qvrNGt6jNNNwNmPy5VlflE37Le2tUV5Qfqpu2IxaSUZ9iGSEmqmH4fh8prHwCx+xGVOiya+1eGqLRrjaKvyz2QPSX4ulf/IKceHBoZ1O5vf3Hvl7e9MT32C/c3F++X0bvmksa7RUGvi++N74/vke+T77X6LwAmIK/8tO/Yp3LcwSSRMIYwYxeSqwN+68b5OK/0cvy20u8C6Cd0CdalTOgufqrGrYg0fbkqvzpj33bxuLikpw4flzm5+fk9ltvs36DDDnhlunqxLCT5aVlefqpp+R1r3utfZC52VlpPPU9mufqwqkMqddtHgSbD1y3yTdO2Zq4LN2ZcGMDr+Af/9YfDetYERALraUbpKlmTiUcFwwtmcjGZaIyIZPZpIxXxmwISr1SN6IZGcN2Mfi//uX98uGfE/nY/65aa9EZdu9f7svb/sWGHHxANdo2i/5km3tmuLbynu96A2grTWP0MfNogDit2rUeiRwfwgj3ptuZh07LB/7V++Qzv/lpWTw+NBUTbhzQQPx7v/4e+Yn/+cc3EwtSRWJpaKagmYNKMN1qlZoJRIpkCoaiv0dYY+F9ulhU9XVHc2EW1mtMnDsug3Ym/WUtS/XQdpor8/kw9NIQSAk1EvaRSC4ISKUQ4tm0apq2u1u7dOQPQQMeHvs8qJrefl0f4HPvfU5+74d+V37np35bPva7H5NnHn1Gzp05d42GISRcKfB9oaGoU733d/5E/o8f+yX56f/13w3bsSKhAqlyYhXeCShUUyLhfo+ud3fI163+xQ8zefN3ahegzlVX7VSrM3nuuDQhV6sivSW9JX3VtiNX5cGf+RtqFi7K8ePHbEKaO26/3WZ84sOyhBDTrDFxzerKinzmkc/Iq+++2+bTYFG82hP/WIu4+oimISGTPbJSICtYsDynrShosmpLd7KP6ag1yJBXfwx0w6S0JoUIvqSEVw4K353VrdiCA8OIpeRBS42qOTiWjaoZOG6CeWijj7Om/SCTNz9ft4vFb37f/fKx/0vkg/++ItXl21XZKInvfFbe+ne78ppvEBnfZna6jK5OvLamVoOp5xN/9n1UssZZjIFjm0xHy3ntwW+PqX97mDVp6kNr6i8U9vSoxUctnQfNg2Qjv30FmxoO9UuiQL60JNe12HcVCGHv6YZ/o1bH0vcAbcX37e+BCpu+D6bBMtVeWd3yx2+ebbcY0VOit7BeHw2aK5MurUOquag0bZWspxrKCKMbcNMPrcUIZZ/GehPxNrzOdS1/+ePDGD6aYBoGEo3qLxW/TjxUwtFsTB+sVl51Iw92eE4xXLJI+ILYT3J9i39XYV+36LggzneM+YfGGor/4LpZGHP69w1J47u0G+AtZKVimnfrVdWCWgHrrYp0tLq/Y51L6WQEYp0uLhzdnF4HcxXKSpOkI3SRIu1az/4UHwahP+rMiMPW0AfML9VYZUzGlVhGMCXa8CF7N5hY0eWXji+KX70k17/Yd6XfuO7Zd2f1KNNU+v2qtTLGd24/sP7ds893b+TSfE4r11yXirVTSqRlZYu+9hm+iZG6dNcqsnxMZOlFledFzj0rsqzxwYqSUc+pvO/Hv31jeXnZ2rjGx8Zkfm5eJicm7EYYfUxdi7Db6cjDn3xY7r/vPpt2bXZmRppP/1O/8jVCse5lGjZs1LG6rIWLiNYTte4V18T1Bad7tl4Tm61+ofUvSvGyEq53QAk82MM6FhKIpj+WkMiIFn5MIVZdQ/05teP2Y6wELf5A7xZ/c+F+ef5TFTlzuCq3HHizVJVczx17WMYPLsvcLfo+6ivVUhNxar/In/37Ig9oPazy3n/7VzeYC55G5Inxcdm7d691zuVDtFprsrSkxFNiFck1NTUlM3v2XHNygZxgSq6NihIskMYJ1rU2sLguLmvixqU741pNvggaZfj5WkxeZsL1BUhgVpx+PWav6I4RJWixeuYaDHLp/2ChFMxBJZabkpu11qWQ656fv1/Lqsldt71ZXn/vV6vmqsnnn35Q5aPS7gy75R24W+RbfkDky75dr/OBn/wO01ysZrJZc/mcGkxUw4qTkOtTDz9ss/FOKvnQXqMvA7nATgRj3dseBAuEigKxIN9wEbQgWo7b4JAsEex6g383TgUjmm5GLMzFoLkgVzQTzXlh6d7z3evWepaWw2ZlhnC3+OY/+Acyu+eg7J29Raan9lmZS8unbZzXYNCTc0sn5PBzn5bm/mPyrT8o8lbI9dD/9p0b584tKolWbaGFPdN7ZKzpi5BTx6JdiwlB0WxOrntNw0Gw0cP/LFz62qKoaSLBIIsRjJUEdetpyCrubDHNyBU2yrD/RqpQ3qU994QrjfzrHRLC+gRuqNbKoJfXwTD5IBpODdsPw0m8huXblSAW+FfP/BdzYqCxmP2MsgbrOAN9Oa2Tp5+RRx57r1T2PCXfpuT6csj18C/+nY2FhXObyMWMTzZoEnJBMuY2VHJ9+lOfknvvucdm3GWBhrGXiVzgPILpxsqBvjQnC0+jx1ybWZx01VpuFiqtclJG7eVwsiW8XNj6XbDn9PD6FvUu9xY6yWxDk6lAJtdYbgayRRTjl4J/e/z3Q2x7nDj1jHzqc38oMv2kvEPJ9TbI9eGfflcwCzsyPjomc3NzMjUxabdCWktNQ8gF0dBc97z6HhtQCcHGnvnnXvLLiEiyGKLBjGhhc5Mx7BnB9KiZhZpfPyR542NPtLo+UKQB30kkilFGicM21E9OJvY9TyBWgaTsXy5eilzHTx02cmXTT8k7lVxfCbne/5PvDA6Nrta1JmUvizBMTZkabrXa+bKtRi7VXPfc/WppNpu2MPn1QC4QiQWiFrNNn2lcZJpcQ2NwmG8ztu4nvHzYTAjXRgrqULoVuzKxbUcqQNqVwG7I9S4l11cpuTK6OjFsv9iBl3qWDTtRk9BsVhWOR2H/enoNiw/Q7rXw6+ZVXyrBVHtDG0msAONl0jBK9DQlefll6/fibgu+NxfMQWsDC1t8TyN4J4rvxdWGX8mvSO8M2rmyuJidJSuxII81HutBprbGNATWqAy5NCQ/+9cTtj5Me9hsGvrjh2xUhN0+x9PEV+OEc/GUtL2cm38Lw+/Evxcnksd0M/e6OxVMo4Xv2r73sF1xUOSFJIBo3v3JbFgljRtJXrnHI0N/QuJoNe8574RC00FIjl2P2PpwbS88fNNoBXMi7hfFv7a0vVzbdt8Jct73VyAU8L3r453EBsy7PxmsIhKjHoFEo2OjRipc8wjAdKQN7HpGfNjbPfDisfM2vrQkL59cYNuKCx27lrDr270Td3Khuaydi7W58BjiATx44KA5NAZa56LheLBOO5eah+2OfPKhh6yHBkNOGIpy09l/rUUkzPzD75b5u/5YY98tS9/zd+UEiV/5u3LnX/7/2IPO09/xS3L3l2y/Lur6Ux+Qpz/30cI52+FrZe23flb6b71fpvaFpIjWj8vp7/1GWQi7Ip+WW3/6nVpX2YKT75Ynf/QNYSeimNevceT9tpMQ8G9PnO/QyEmtxDpx8rA8/Nk/kOr0k/K3f1CfIg4NP6oImsu8aCrs2HwZYciJ1cO0ELQXDg/iCTvhtBz6+kASXvpIuBy8wI/Jk98zlKd/YV7k/d8oT8e0j8f1U4t5/aU/8aMa/60fl9h1uvtx3S8SCxIHstixUObpp75WZN875dZ3eLYc7/hYgYR/LGNv3TKcPuE85Noqmq7B0RdhGiySyenk5qDBovpPT6DHPO53JgKN9S66SCVsj/3/8m1qBRBTjbVJm1wLqBYK2hFiPfdrFjUs/MLPFkgboT8Er9uiTfd9TNKCTTtjaAZqPRAHYFbVUGtZgVz8z8llCOGQbBvmju9o3QqPITPuttZU1Bzsq+aqMeY54TxU1UR0k61gIl5L5Frou6VdIFaOX/u7mwgnX/lRafqaBkrGd4tPHP6z0tyq3UqOXk+rSP2eWXIRaCr6L45Ua6p0aha39CBmuUSCRZ5FkN7TAqmPnT17Vs6cOSPW4NzzKa4TtuJnZczqXoqTb7kAsdT0+sv3q+k2lPNMtUvEzOxjIXZxmHntH+f1wvavvUHaJ21H6q/7XZnxaILiQx/7L/JBlQ99/L/IU89+UrqdNSUQnvWq1EYaKoyHHNaycnJtB4iG+72pP2swFO0V107GoVFXSdgK6kfh11/rNnf+w9OWej7Or3Nt0iaXgYWz94dYBM6KnYj8aZkKPwbrT32L/RiceDaYjaP6A3BtlgJ4ReDEuUfkuWOfMmI99oUPaviQPPPCI/KZz/+pLRn02SfeZz3jwSazECJhBlqCkocJaViiFRQJtW/fXv1l1N8zPQGnRsJW3C/9979BlnAcKLK73nbFNNJF49fessW0e4M8ZwSOJl8BBUcG92rky72ZfyzN1+7041A+vOuf6eP6LpE3fvW6tAcvKrk+IY89+SF55NH/IZ985Pfl8Sc/LEsrp5QrSiyIpCCa7xi7IBubEg7nBY6MKKOjY+bcoJdGPCXhfCz8wveJVk8N9S/5bjl0TTXAkNz1L7mwubn/tkAk82gOtehSMA2zu34jOTYC/u73i/z9HxT5c98ismd+XYl0Wrrrz8vN956Vt3xdS77mWwbyF/RZf+U3iRy6LWguiOUVs+BKjEwzjUYlzLtE1et1qao2i2745mioBSdsg3k58ofRVU79aivBzq9z7WxCno/9/1LPKbSHQaK7f2RYRzKvYNBUdsyuMWzH6h/V4Ct/VyZCW9n6kS/d5NHMTcPk2MgBLVSniOoXaeir3+u3Ze/NLflLf2td/ulPifyr/yDyg7+iNdcfFXndW5xclY/9/N/aWF1dsd7vE2PjcvDgsBHZRiF3u0oyxnYN5LOPfEb2TE8buW6++eaXbSRyQsK1xpr+QHXUGvmj/yryq/9O5OnPOYne8Y9FvuzrRKa28f7ojx/9Cb2zLpqJLk+xM6+Ld5BEk1H/On36tDzzzDNy9EhafC6hfIiGHcCwo0egGXjbICzbin04bGFmIlBc7X4ss14Z5i3su3ODwZOxt3xCQhlgZp5HcxixfE7d/HhRzGyHeBCIPoQ0Eq+sLMvi0qKaiit2FE+hDTUZqdo01jcdOiTTe/ZwakJCKZCTpqClVNdIV3WM1po2kSpKhrZiUCQTf6611oR54zH9jh8/IceOHRc69frIY3dgjI+P28xPUcslJJQBkTBmAgaCQa5e+wLkwl2I+cfCC+12R1ZWlWBLy7JwblGePnxYPvnwp+TY8eOmyc4u0ENjWU3Gnqz3z2s1SUi4YQFZAKYgTbzwS/WRdCCX7m8lFpKtrazIQM1BTD96Y9x6621y16vvlde87gH5ojd9iezdf1Cee+EFefa5Z+2MTmdNtVhdRrKCfkxIuMERCbPeVwn9J7pKrBarS2paPF6UrBG8g3UL61JvsLBXU+pKtLGxcZmYnDLSWTuXrdmlZylV+/3k0EgoGVSf9PS1p55FHK0FuXbqrDTynV//+h9gbkKEyQ7nZuelqkSzUccYmCqZEqqiNbmV5WXZMzVlJGM2qD39bwjFJCTc2Pi1Z35BPvcJkYc+KHL48WAOKj1QNqtLmvaYyKMPbZbKB//tX91oq1nIZDSVrCp32dRpo9LRtPVB34acrK4sqSzKs08/JYcOHpBmvSZ91Ym3tv59uHRCwo2NV/+Md4jGkTc5PieTE3Oy1mYE/2npD1g//HxkaCgbXRzDwTAOWAuZBubhkq5hshqVhISyYN/crSZ7Ve69+8vkK7702+QNr/laVTb3yL7527aVyod+7Ns2Wiy00OurWViVO+++O9dc+BiZLBTNtaby7OGn5FU3HZRR1Vw9NTwPLv5UuHRCwo2NHz/5hyG2M7x5io7wLhn1LDRTNpKZMK0aDcaWlnmvDTvJTnQkP2FCwvnw4VtYfQMTWxPZxU3BooCceIFgtvSOHmMFlISEhO0B0TLmw1jXepayRtpra3Ju4YwsnTsjq8vnpLW6LL1OSzb6PVV262olDmyObiMjrpKEhIQdkVVUM1HHGhsblQUl1uOPflae/PxjcvT5Z+TF5w6bLJ87Kxu9nnTbLRkfH7Wp1mj3SkhI2Bk2EtmgmsiXV4gh7VwDqagZmKcXtFXSWwkJF0Y+byGI8TxtGwbFvBrxMCEhYVsMJwWNwrY1LUpgG/GEhDIhes3Nc74DinkQJ5dueACNNGG/SKYcdjgcI29CQklAk9VLia8YFPdZRrZAlq2i/3KiwaxEp4Syghl1o1SrdGLfQUaCaHzbOhekQiw5MMrjhbyJagklQqM+ep7Ua5vF0jjWGJNmfczJBU+GBIvi+9uCQxc4nJBwo2G0ORVkMpex0c1SPDY6OiVZ7KRrFbDQ3QkQR6Kn3npk6DE67dqSQlWfdD4hoQwYH9ujMh3Ci5FpyZjliQXuIBJdnYxc+uc94Zm/xtnV63UtZuTSkF7yCQllwWhzYrNm2kFcg5F3QlBVShZ3HeZqKpiF3sVpuAg5e/SSb9uiDGkOjYTyoF5vXpzUXGrVhvIGcoXFxZ1b7rSIVS7mM6xVfQoASNZT85A5C5nQJiGhLMi9gC8hRa+icoce7zZ9YdRb0Ms2iGfza9TrKpyg2os6Gh19ExJKBNqwdisZ47fQWtGRkXsPlUSaaFNc47zwEzyfmYnJoZFQIsR3fzeiPOGf7wDjlpmFgWQa4imkrsVc8Zpk5EISEhJ2hnIkqrFoFA7JhYseQrHayfLKioVxkCTcS0hI2BmV9//Yt8MiI9fhw4dlMOjL6CjTV+P1oFIG6TZkeXFRnn76KXnTm95oM0KR5+bln/FSrhIaNzdl7O5xaRyoSv1AQ2qzdclGq3hZQo6EhIvDk9/zeIhdGt53aPfjFyu///3fuDE+PqEqbES+8IUvmPudwZO27nG9ZnWv9tqqjVB+8YXn5Rv+/NfbquaddktuWf25UMyVQ1bPZOpLJ2XqTVNSqVVk6cPPS/vwaVl68HnpPH9OOi8shpwJCReHLz35vS8LubK+1qVoLK6o9Fk6aEPDjYp0ByLd/oZ0+uuy1ulJy+Y27MtIcMvHOTauJPa8bVpu+/47pPkqkaf/8W/Lw6//WXnq7/83efEnPqgkey4RK+EVhayqZPF6V8UIYxPQDLSupXUr6les1cUENbjjyccSQ8iVdMdj/h36ezfJ9Fum5Im/9uvy6Nv/o5EpIeFKITYvXWi7EKiI7FYy2rFo58IljxPDuz2NWF2LLk6NRl0a9YbWwUZtmmsIx1KukPBKYPKN03LLP7lNFt7zqDz8hp9LpEp42VAkGtsm4HvYpajmGhEakukziGZiLS4mq2mONqXRbFi6F44fwZcbArHh+XKw/50HZfbP7ZHHvuXd8sK/fV9ITUi48iiSJt/0Xd4kuhXhKZfuFsce1ACN5W1Xo6OjMj4xIeNj4yTLuXPn5MyZM7K0tGwL5HETtVrVnB2XAzTW1Jv3yLFfeDBpq4SrjoGsny+VILa3bkTCIttKtEslWMZ5zA+PaqLOhUlIX0LCVmtNjhw5IidOsMLkovR6fc1LD3rNU7v0qdWoYx1QrfXYX/nPcuyXPh5SExKuHnob3Vz6G71NArk0pnF9v8MWtVlEMX6xMNuO5YCoS9mi4uYVpOd72xwXnTaLEVXUVByT8fEx025x/NelYv7ts3LkZz6SNFbCNUN7o5NLa0PfbZVhWlu6EM8pptRSPVZx7XUppIowcqEK0UgQqdPVi7Xb1huDgZSsgTwzM2MLjc/NzpnX0LyKKpcC3O3rK61Ux0q4plhbXz1PVjdULN6SlgpEg2R9JdlAtVhOMN3QJbslmnXAwN2O13BqesqGkvR7PfMe1tX0m5yalP0H9suePXvMVMTBwUXQarsFDcSzX7dXnv83fxJSEhKuDZY3VrbIqiyvrzjBZM239TUn2DoEUw224XWxS0VGjww383z0MaOS0ViAcV7UvyAZ9awib8m3W9DzYu2xU8kcTLjmWFxfymVpfVllScnl8WWVFSXa2gbkUhMR8xDNRd2LDY0FQVSMAyH+UpLZ+CwINdAwCmm0Y1mZmpELaJoNQwmoWDPZ7kCXphd+5E/DXkLCtQMEiuLEIlyRFdViTizMwrZ0ctNw6EHkVb8kh4bXn9wFmYsRyQvFgUG5UaNxEWzJ3To08BA2bp5IWivhZcGqaqUoEImwZXFCrXMZuTpGLkzC/jpmodPLFI1il688U6sR6D/+2GFfQ+JoJxbCA7aca1i2nEZnTMbdgN7tp3/j8jpPJiRcKjqmlVzaQUsNvYWuraLGcp1ltHL7DFYR2aVkNn8GW9BGLt7XEK3lM0DpZZglSsVIx7Fd9tBg2Mji+58OewkJ1xbdjV4uPa1P9QjZ1t39Tpq1c23oe66h1bX0PP9/achGlEC+TKvP8ETcVpKM+9bn0M1CCEY8knA3YDxW6tV+bXHHT7/dhlu85cV/ITf/i7eF1J3TAfukczzKFz/yXTL1FbeFHCLz3/paefPhf75tGcVjhOyDeM3t5L7feKfluZpwXbR5M29gRWNq9qGl2CzEcqtcOqkilEvVnFSEkWQxzhQAsNccHTBL45dCLgY6Mh4r4foFL/mhf/blst4dyFP/8L/LR/f9iBz5qQ9JbW5M7vu1bzuPiKBSH5GJL3lV2BPZ++2vl5GJnXvvbGjZlEnZUR7/lneHo1cPRZ9CdLHbe01a2AP8j+82x9kuFWr5BfNPNRQh5h4OC0IzDzEetXy7iYK3cLdgBHHSXNcvIM7UW262+JnfflxO/9fPWfyFH/uALH3sBSPR3nc+sEmDRUx80U2moTg2etdcSL3OAGGiKLbz/g3JpLLN8d0i63Z7Wpdi3JbXqeidsbS0JAsLC7K6tmqkYojJ0uKSXRBW0+cwOjcuGrt0gCRcW9QOTBqBBiv6XT+42aPbed5/FNFg02+9xeIRnefOSabnTb31VjuWNUZk9TPHw9HrCJAlSiRYgUweXllkdGeid8ZIVc1DtFcwCd2ZQQddRh6r1Gs29J8hKb6G8lgo4iKBaz/hZQGkwdyLdZx93/FAODJE45bpEDsfvePLZs5th7aa+u1nFmTyTYdk9hvvld6pNekvtsPR87H1XhDqYzciMjrsooViiElIFycfRFnJjzELFB170Wx0faLv4W6w3upL4+adv8CEq4et9ZyT//mRcGSIqJ22Q9RqO2H5oSMyes+8CfELYbs61+HveU84emMh26CC1x8YcVrtlpmAkUwIx8xTSANyUJ3m0Nilmdc729Ffxz1hL+F6Q9ROOCMw8YqIWq13Zk0WH3ze4kVgRmJObmdSlhlmFmIK2rwZEKrfk75qK5uvUDXU8sqyrK6s+vCTjhMPopmjYxfoHk8LN1zPiI4LMPdN921yoU9/xW1GvFPvfkSWPvispReB8+MTd/ykSXSE3Hjgfd+dqOVH3coHJFPHYq6MyYlJ6w0/GUYkU7+irgURMRk9PwVcPNpHu7Lvr31x2Eu4HoFLHJMNB8Vdv/CX8vpZ99iyPP6O/2IEvFxsV+e6Fu1cLwcq7/+Rb2WNIGkoeT79yGdlz55Zmd+3z7o4bagGo7Nuq7Uiiwtn5cTRF+WtX/oWWV48p5Wogdze+YVQzEvDRh+/Y688/MCVn+swIeFCgMDf+53/MuwpUAwb9JHNhK1eqUmj0pTxyphMZpMynU3JZGVCxrJxaVYaUqvU5cFbxk2huLPx4hRLZk5IPYPOu4T0zMCZYcNMVJNZPYs/6mZKtKKDYzfovNCWdbUMp/7MZns+IeFGRdZQUw9zDzMR4kCaFnPDLy/LigpeQXd09KyuhYse8jE71G6x/NCi7HtXMg0TyoGMyT+tLhW6QdGWhdo0x4VqsqHjImo4emp4g/NusfTxFZl4w01hLyHhxobN/gTMvW42pZIoNPjSzgX4v9k7uFtfoWO9uy5Ln1yUu37xm0NKQsKNC2vnArHdCpd8HMK/XcXNSOgR298tFh9cldqBPalBOeGGh41ExuSzjrq6xaElMIj6lRPMibQd2S4Fix9ekft/52+EvYSEVwIiDy5elFzBBFQikUZdCoFolgZifgIIZtorJFwCaPM687vH5O5f/p9CSkLC9Y1Igd1IRq93EBuG3dXuZqETzolk5iDEUjjBLHrJWHm8J90zI3LLD3xdSElIuI4RGbMLyaLzgkZjkNe59KDNlcEx4hYbYuv+bhDPXfpMW9YrE3LLD/15209IuJFgjcj8mWbSDU1GrwzbC5oqoqi9Aj8uC1xj5Ym+rJ4ckZt/+O1a9u7m5UhIuJ6RQRZ6XqyrKQhfCFsra7JyblF6rbbUmHl3pCZVNBtaTY/jBLmUdq6d0D0rcurRvuz9/q+Tg//LV4fUhIRXNrKRWtU0VbfTMXI16w1h5E5reVVlRSpKqKoeURVnCzYgVxKuDenhVZEzX+jIi0+vyZ7v+xqZeOfroH7IlZDwyoMNOaFXBj0yaEDev2+f3HXXXXJg/35rTGbI/+rKii3SQH0s9uJggYbLASZhBBPtKH1lpMJCe1V5/gsL8oVeWxa/4y4ZfOd9Mvjm20TedlA27pqUjcS3hFcIKh/6yXds7JmeUfJ05ZMPPSy3336H7J3fK8uLy3L69Clpt9a0TjaQldUlOX7sqHz1V3+lmoV0marK7PEfDsVcGqy+p6CeN9CNGeQ6622bBXVlY1Xqr2rIzN0zMn9oVmZvmpXx2UmpjtV3PVAzIeFye8V/5NYJs7L0NAsvBpU//dH/aWPf/D7VSFV53/s+IFOT00YuLtxpt1VaRqblpQU5cuQF+Yq3fbn0e12pjmRyYOEnQjGXhkguNKat8MfEjLW+zHzZjOx9014ZqWVy7sFnpX/4nCw9+LxNzZZmkErYLa7EkJNLIVdGmxajj23+wiyzYf5rq2sWeg/4OEBSTTYtFGdGf8CQk8sfWZybhhpkau/te9u8vP4H3iCzN4/Jc9/9u/LpB35env37vyMv/sQHbY75RKyEVxJsxt04hwZ1qfn5edkzM2PjuazNS4mEZ5Ce8NAW1jJLlJHtCmFUyXTLP7hZZr50Rp74a78uj739P6YFGxKuLNA2UVA/JIUtxq40MrQSGqqv2qtaq5mjYrTZNMcF18Nkw3oL9zPEFbqX6S+ellv+yW1y9j2PycNv+LlEqoSrA3uPhy/yZtNO03T3wgTj2O5EeZUFs2/EbFAbLNlq2SQ1pNuxqk9tbSfpfcQRyZeLg99xUGa/dkYe+5Z3y4s/mtbtSrh6sPpVEJufU0PnFFtmHmsUifdJUmwiX6TL7sTIRTcnQggDuWJPeTJAOm6GiUAhmN1ApnUvNRkvB1NfPCUTb9ojT/79/5a0VcJVhxEoitbvEQgWqOWhvucgKLchSNjKnIuQzHpnWH3KXeKoy2rNHRje31Avq2kM7Y/dkyBi9PRdCpisZv933CSP/ZX/nIiVcE2gumoolRGpVqpSy2oWso/X0Bc2cdIZoYxTMIXd3b/vWbfbMYcGJ5uzQjUVQ/5rRrARSxtKOIvr7P5aOea/cVZe/NmPJmIlXDPUKrWh6KYVHt1GdJ//uinBIsn85fZ3Po4auRTYdNZuBmpxkURq9tkKJxrHBPR9y6GX9e1SL7rnK/fIYGkt1bESrimgU5QhqVQ2+D8kWDQVcy7oxstPfLfay+fQiAWpAAZQ4oI3bUadrHCM/KRfkpqsZzL7tXvlhR9+b0hJSLg2iJoJMVMwbqSZg2PE547htQ6vNkrHqj9m1XnabqBExcYsEmvd+hn60kIszOAeFrRWhJEraLvdYOrLpmTtsZPJHEy4bpArDUUxDrbu7xZZroG0nFgYacZaDd2buFmzwXBfZXJ3mPziSXnhR5I5mHDt4Wsdu9jax3EjbX2g+kmVBa93FALeeSeGcqF48OIk64bFFQAFmUOj6uIODU0vEiuQKiflRQIPYfOWiaS1El4W0Ck8CtRigXGl2XALi43bYGE2fb9NglmImIWnZV2sZJ2eXnCwbprITMSRzBqNcccTd3JpTi4SJF54Nxi9c0xO/+bnw15CwrWFrd4fpLvRDXF99+ksHohl5EKDGTX8HfcqUUjapWTrWqlbWWtLp6/FakGtdlvWWJZVL5jRfdAmAuCiA6k3aprgzo4mM/PuAs1DNVl831NhLyHh2sLfYBc2TEJIhXgKmysP84SbVjGK2fnRctsNsnZ3IIsrayorqsEGUms2ZGJ6UianJ5RMVemvs15XT+1SNR0reinqYmqjUhfbDer7G6lX+y7BAt5f/Mh3bVpuByGtuPA3a2m9+fA/35SH/bjG1lawuPhbXvwXO+ZjTS6OkWe7FfyLYPmfeM0HPvh3QuoQOx2P93Ax17gSWDeTL0jcggkYDEHVVO6kO49Hl0AskDUa9VAo88P35Ny5c3Lq1ClZXFyUVqttQ0+6va2rTO7OJAS12bqNx0q4OPDC3fdr3yb1g5Oy+MFn8yVOiZM2/82vsXwQgbW0WFMrLof61D/873aM9O3WG574klfly7CykuTeb3+9xXeLrav3N2+fuSBRWNb15Vr/ONDHtkiqqJmgFyloJ0I/Yffv+FZko6Nj0mg0hdVOGMp/5MUX5emnn5IXNVxaWjRy9RCtmzGOC/c8ZNxtnSsbrSbNtQsUV9c/9f98JqT6AnVxTWM0DqtAAlaFjIvTsbrjmd9+3OLFVSIB8Ykv2rwYBgQpasKLBQSH6BHcL8TdDv2zayZ7vuaOS7rWZcPMvCCKze+vewWNcFcQGStGTk7qA9KLtjsd01DI6uqqrKiYtlJCIXTWjS763ZJLa4YhknAxKK5RjAYqmlQs0I2M3jFrGot8Kx9/MRx17LTGMXHSOLbwh09aWJsbk+m33hJyXDxYwR+w8uTyJ/z6OxF1vaPVj/dv1rrXFLyvUSLBwhZjVxrZ+PiYjeHicnTOZbDk3r17zQ2P1rIDKuF+DJdErkswJcuM4hrFAJMq1l1inetCq+y3Dp+VdSXOVkRCsHj4mf/+uIWUMfuN91r6xQINWD80ZfHWU2dk6QPPGlEvRJ4T//enpfXEadOm3PsrC4EIu5AMQqGVmqOjsm/fPtm//4DMzMzYOshxDeS4dld0YvgPwO7Ist7qp5VNdglMwFjXoj7Fywt4gQ/9k7fm2mk7RK1WBPUh6kXg3HsPm/kIMQBE2erYuBCop6EBo9nKKv8QFUQCb4ezv/t5u6/pL39lrTAaLcrdSNbWehYr9kOyPdPTMjHBAuPjpsHm5+alrun5YMoRH/fl2B25eme70rhlT9hLeCnc86vfusk5gCZj0W9MMFDfN5Frp+3qOsU629KD3nBfdGSwkDhakJX6wVbz8UIoOjKi2Xr/b7wzr39diKh8jvYzC9K4dc+OWvdGgZmFY6Njpr2oY9nENEo7H4VMTw3Coeby3hquvXaD7vFOiCVcDLKxmq16X1zpnnoR9SOw/NCRTY6LqbfcnJORcG94uTlOviIhMM2iRmQUeCTsxTobiveBc2WrdoVwF/JAHvm5B430Nzoy1jyGYBAIJ0Yc4u8kCqOT+309XstNQbyLuzUL20d7sv9dbwx7CS+FIz/zoL30aJZY14JsaCpc7Tg0ACH7pHN8p3xFzx7EjFj64LO5abjVsYFmiWVGgezUz7ZqRVA0DS/kgYTsK586GvZuXFQ++DN/ewNy1es1+dRDD8nU5ISahU2tjjGfgJpznba020wMuiFPfuHz8pr77qPrvHlX7ur9opdyEaBv4YF37JWHH/i5kJKQcG3Aj8Llzlv48TumTeGgUy62t4ZVoPLMhCpscdf+aYFoKhqPoyveEneBzgtt2ehVZOrPvLIqsgkJlwpb5QSYGUhoO75vRFMxKtFwbF2faOHGFU/G3WHpE+dk/1/74rCXkHBjI2gui4dIUXM5uYCNTqbrk/XOYCIbS94Vlj6+IuNbegckJLwy4NzYjeAYtIgFxMIxQqeZH3Gz0OcrvJS+hWC9uy5Ln1ySu3/pW0JKQsIrA8aHXYpqLmJ+NglDeHpMi+Qadn/y9N1i8cEVqe6fTg3KCTc83Cw0dnlsKCE9sMsIpRrLJvHYpTNjK859aEXu/52/EfYSEm5MZBWGjfW7yjIlzAbtW7gozdOhcScaZuCGEW1EBpqtWmvKSLXuJVwCOse6cvo9J+SuX/7WkJKQcOMhG8k2ZGX5nBCuM53ael+YqzD2xmBG3k63R1YjVEfrTTOz+2Rs/PK6Mq0+1pHeaZFbfvDrQ0pCwvUMVzSb5cLIxkab0mzUxRdaWLfhJu1W29boWltrCet30TuDebS73b7QFxHLsBLm1b4URDN06bNd2ahMyC3/+s/bfkLCKwvbESxWm9QCdO9fGN6sGxqrOjIitaqvv7Wux+kahRZjwbt2u20E9IbkywPXW/58T1aPZ3LzD3+DbKQxXwnXNaLGigJ2emeVXJtIEupZZhIGszCeOxjQtuWrnND/kMXyrhS6CxU59ehA9n//n5cD3/tVITUh4foBXDDJN0u1/xYS9ZXz8zBjHBdLs9LrHbahybqqoTqdtsVJh1CshML4LohnHXzXvIPm5cJvmh5eFTnzRFteeKolM9//NTL+Ha+TdfNlJiRcDzDW8MLmYilxd5gjAM1l7VZqFpoC40WnZTmz+bPjkBMIRjqT2TCmi4XI6Sl/OYjcB050lnZhlcuqPPfEgjzZbcvKu+6W/nfeJ4O/cptU3naTyB0+8jUh4VqD97W4kWKssngR+NUhk4YP/+Lf2eh0unJg/375yEcelKnJKZVJe+FxwNu88Xp8ZXlFnn7qSZsSYHJ8QqampuQ18gte3iWC8gFdqphHjtlQO+ttWdtYk5WNVVlZX5WJOyZk7917Zd9N8zJ7cFbGZialNlq3CUwTEi4Wl9sr/pN3zetpVIs4PU5ms7NY45WTqyMHDhyQjz74ESMWxCEPWg1XPG1ei+cW5dHPfU7G1IycnZmVPTN75J7ez2hBl45ILszOQUWvtaHk2ujKxpzIvjfPyf43H5SN3kBO/NfPSrWzLksPPm/Ts6VZpBJ2gysx5OSTd+0tkMvoocAR6GQaiqexZZh8I8Eb6NqOf5pF61hMpUabF6v8E0IC5tZoNBvmRbxcuHq1iNqnFalPNeS2v3KLvPn73yIjT56Sw3/7t+SRB/69HP8375cXf+KDNs98IlbCy4MigUAxDFJ0aOi+uQxG8Ax6qtWxaNfyUciqTfo+Kjku1jAxOWFOjbVWy/avBLj2nrdMy13/893S+dwL8qk3/oK8+G/+NC3akHDlYMojCOqHpLDF2IURCHSeFFFI0+K8424Bdin9h+AtZO54XO+xLazX7ZlDY5ML/zLAh9r7l+Zk5qtm5Inv+HV54Yf+R9JOCVcevK9RFGap5dA03nl7+18KbvLZOUUxbbUZ3nHX2ERoOyQZWBeZBRfQVMwOVW/UzR0/MTEh09NXplf7/u/YK9XJdfnUAz+XNFXCVYPVr4L4SpL66sMJ29Ry0zgKAxvOsIl8ZI2b750P0oaCy2M4EtkK3fyfutbk1FQ+fyGpxJl2bXbG57+7HECssXsm5dFv+JWQkpBwdWAEiqL1ewSCBWp5GLr0nWeUWUJRQGF/G60FbLBkTjDjFAkxDfET0VzUu+j+ZL03VC4H839pVkvvyUN3/lRISUi4elBdNZSwLnItq/n6yLqP19A54qRzE5I9OMAuBy9GAvS0YZ3LAo/HAqln0Y8QjKspODExaRchLdbBLgWTXzIlY/eOJ42VcM1Qq9SGEtb0V1rpPv/DwuOBZE4SZYEqGFury7AziTYBhgZN5upHC7FNM5rC8iTFhq18wrJCfSUUbvjR0VEjGPuXgpHJquz7pv3y9D/47ZCSkHD1AZ2iDEmlssH/IcGiqQixTHSDDPDBejIVCWYkiqII3HFYnStELeSfSoijnZaXl+WFF16QEydOmFlIlyiItbK6QqZdY+arp+XMHzyZnBcJ1xRRMyFmCsaNNHNwjPgo+wJXeP/NhYFJGHgyRCEjUKLhxDAGQSGVjPWQB1pot9eXeqMhjeaoCQ3LNDBPT0/J3vk5qY5oDanb1hsYaJkDLWv3ZmFtvq7k2icv/vB7Q0pCwsuL6G8AxTjYtB/NvVxCOgQzYgVwLJBOCVuVrFqTgbHTu3eQk757kIsZeA/ddFAmNVwfqCmo5KrSa6O2+8GS02+akNO/8Xhqx0q45ogLiiO2wHjcSNN3eoNuSzAkCoGSK5qFToydBGhoxIoI3Z9YyQT70EYht1vStWH9mldJpBlkcmrS6lvUtZgQFLj3ZHeYeOO0vPAjSWslXHvQKTwK1GIVf6XZcGNfiRaXdOX9NoE0Ib5Zs/H+Rw5sE9esGT0ufKJPnzqNLk/0KwQDrWP11VxkFRRWoOQ4x4yEnbbluViM3jGmZmEzaa2ElwW9jV4u3Y1uiCvZVCKxjFzW8RYSOaHMLW+IBCqKomAG5ukoOw2zuM4xoCcGB9BcS0tLcuz4cXnxyIvm1IBQODTsfM3jU6xdPEbvGDWTMCHh5QC0icKGSQipEE9hc3KY+x0txXtuab7rL38UUIifRzJNeviX/9EGJ06MT8jnPvsZGWuMal0rkzOnT8mLzz8vG0q+173udcpgkYcfekhefdfdtkge82nc1v5ZK+RicOBdB+Tkf/zwpsWzE14arH7PQnWse3X05z9ii8exsNztP/bn87WNSWchvJi2FSxF9NQ/+h2pH5jI8yx+8FlbubKIYrnF4zulR7BeM8vKgq3HWUborn//F/Pli4pgCaJn/sUf2JJCVxMMOflfvvN7wx5EMaYoHyrmLaTti6Elo7pNj0zZsBNkrKIWWxhy8tDdY3aeKjMNY1sYO5SEyRiIpSFai/TMVulXIUOtWpPRsVFbXZL+g3R/whRss2aXai3qZzDZzEOusgvU99WTSXiFcOgfv9VedF7Op7/nPfkq/hG84HFBOuThB37e1uG6GoB4cW1kMPFFN+24qmRx0T3ifIZb/tevvqgF9y4XvLdxi/WqqJk0xbQW5HHtxQmb32/Px+Z7JoFYLqAYV3INVDP5qiVeOI3ErI185513yn333Se33XabrfZPB16OsaI/gyujKXmxqM00bKBjwuWBxefQEmis47/08av+q/9SiGsjRxC/mOVf4wJ8I5MN06hXHWirKAre9yHcKxipc2EMKbaZTIV4MBEzhu2PqbYaGanaqGPIU683ZG5uTm66SX+F5uetNzxai/6FgPhos2nxi0U2OpI012Vi6m232UqTRRPx5cTWpWARcKEFxwHnsUQsGCx3pHv80jok7AqQKUokWNhi7MLwfOeLIta3ck3myBYXF+X48RNy9OgRG6dFz4u1tVVZWVmx9ZHpBQ/hojeRmZ/WWmv54MmLBpW2hEsGy6ROvtkXFWdpVJZI3QnFpV4R6kRXA1vXaI7aqHn7zKbF0iPQuNxPXJycH4lT737kqpmsVxaRTDsJwPqLoWouG1W8tmYDIn0UsmowBknqPh7Cqmors0WVXFGVDt2Tu8AuvYsJ5+PMf3vMnBO8mLf/yNeF1POxtc71yFf8H+HIlUVcG5l7Ov2bj9r6yNQDSZv4Ev8hKKKo3cDSx1542bXvxWMLkTY5MDx0aBj0SDbapCMuXaDWrcEYk4+h/dSrIBOayxwZgVw13SeNKdZ2g/XWIP/lTdg9+JVvHz4r59572PbRAsWV/q8EMM8w0y4GRUcGZEcb3fULfymvf+204Pgz3/tHRkaAhsUb+spDgUiFMHoM3Vuomqtaow9h1TrjIpiAmHyYgJAKTYZ2Yx9yNZRYTFBDZ8fdoLfQkbHX7At7CZcKVuePv/5X+uXEPBssObnq+4ZOhtE7ZiVTbQTBVz7+oqXhtIBIpB35qQ/lWvLkf37EjkO4+W9+jcWL4BrP/5s/NQ0H9ipJtzMhrz9AnB2kWNfKNRgWnpp8DOenfsVMu97lKTNSjVRH7DwzC3F2oLkY7l/zmXd3g96Jjqx3Ln/GqASRIz/3YP5y0ga2lWBb61xf/Mh3nadFdsoTNUusHyGH/tmXm6l36r9+zsy4okNia/0vmoZgJ8cGHk48nRCTcm/6ri97BRBsBzIV07ekVT77H79n4+ixo7J4bsF6Xdxx220yMT6mWqwrg15fTcSedDttWVxYkC888YTcrsdn98xovawvB879mJd1EZj9c3NK1iX5/Lt+PaQkJFwb8ANxufMWfuJun35QTzMFZPyKZmAx1AMUD7kyc0JqnQtNRAdeTsPBsbKyak4N5oSnDobWsrYtPT86NnaD1uGWjL/xwi7ahITrF7zzkCe++1vCgjkY0zL6EZqjQolFeOLkCXn66afl6NGjsrS0KKtKLvofxtl3MQ8hWbGoi0HrsC/cMPv2eyxMSHglAW1kQtwS+Odpm6HMMHKo5uraUkA+GSiTzzz//PPyhJp/kAvtRdsXmgviQTAjF+Nf6Ny4Syx/YkFmv/G+sJeQ8MoBJmEu9G+3eDwYVQ2h2YLGl6yndSoSWLUE7yCODchEI/KZM2csXFpeMrOQvoZ4EiEkK0/uFksPt2T6bbfL1J956e4xCQnXE6yeFSUQKxfLMSQViod4xqomzeaoueHpfQF5Gs2mTfo5NTVp/QmbjaYRi/YtzEemu0bT7Ra9011ZfeScHPibbwwpCQmvDGzSXAXRf37c/kdgGq4LU93Y6GOmrYZIt956q9x77z3WYXduft6mU6P/IceYY8PJ5T05LgVnP7AiYw8ckkPf/daQkpBw/SPyyCSkgTi8xAiVi//PqEPRzUl1mczOzsrdd98t99xzrxw6dEimp6atUy+jkNFarJWMV9EZa2XsGoPlviy895RMvPmWZB4mvALh5l8kUqSSh2B4LEMDxS5OxNFQjOdizgwjlKbRLQouUe/KvYWX0Vdw+TMs5NCQm/7RW6Vx85WZcz4h4eoikmaInGR58ubjGd2dcMe3Wm3r7e5jtVhcXJWTVt4soqTCDY+jA2LF3hqXg9N/sCjr3RG5+fu+OhEs4RWGQKoYLe4XkEEohp2srq3aiOTo7YBgUTvZqSHdSKV8YzG8S4VWBS089UfLUqmPy6u+76vkVf/vr7C0hIRXFoomIWDfGOPTWWMSMviRuhX1KYb+m0tetRRTrplnRPMRsu+LkfvAycsBpUKw9U5dxt9wUyJYwisARSptjW8mWjY+PiHz83P5iGMIRWMy5IJR9JiHUJyEM4M6GCTDuXGlcPoja7LwuWUZ/+JXyevf/52JZAnXIZw828PT86NYdyqquXzFfphEfQutNDraNPf7+Ni4DS+BVByLzg/qXJe7hFCEacVKJivPrctzv3dMzj12Rsa+6KB80Sf/YSJZwnWKItFyShmhTIiqZNSl/AXHSPNJOrx+xeFhfJgWCXHpdS7AtQxapHcmzpTkI3L4/Sfl8T88LId/+3NSu3devvjT32VEu/PnvtFc90hygCS8fHAOnI/z0yuf+uXv2jhx8rh1aaqpCXjTgYOqnarWj5BW5kG3Z3MULpw9I0deeMGOs0A52m325L8OxVwalK4WMtUVkzR2N3rS2WjL6saayUp3UWZnRuXQXQdkev8emTgwLWN7p6Q6NyZVRrxehlMloRxgAOeVGHLy6deMmELBx+eKgbcXjhDyHvtgYtItrlvl4f/wjzZOnzltY7ZG9GIH9u03ckEsSupr3YuxXZDr6JEjcujgTVoPU3I1mzJz4oe0oEtHJBchM6H2w1TDaxstWVtfk+WNFVlZX7H9lkpnoxPm9WYIDD3z+aRRA3pZCQkviUsg16cCuaCFhbx7L0EuG8+FWz2OLI6NxOtKLDKjVUgzs9ByOHNj/stBbhoq6IfFB7UZUNnsAzdM+PBxPUBfVckfip3PB0IiyRISrgYibzbhwu9cRluWdWmK5Apk8oZiJVUkVqFwq3NdAXJFQBI2FiBjY9W/um5KK/vlaOqvSkN/PfIlN8mnQn5+faz+FwkWJSHhKiHnmEZiPE/TWIxnNArzcsbp0iBb1Frksi5PKvkp9u6S/8q/wFF7VZVEaKtm1jRiIaOVUSdZpiRT0rE6ICRzHbZFiyGRZEmSbBXeD0X8UY+xXSHQIUfYLyYro4K30Lo6sQexorZysZsp3JBHdnkzOyCW5x8vmIamvSBYXUYzpsdvqv2roRJMDUUjHhRjLVtIZufk2sw1mZVavPckSaLwvm3z/sZ3kNj573dIB16EccXCUGbcN2g0GzCdWr8v7bU1mGbzaFRHcGj4SbRB9QdaD1Nt1tV8rES5QUVw5PJ7aEQEKhicXGgvFofWepfSaGxkzIg1no3ZyhNGMjMVtbLJpmRzgzJqMg+LhEuSJIq9E7rx3lla2AP8j2QZkq2ILfsFPlncBJppdavXaUu33ZYlm/1pXZoNre3UIBfs0qK0btXrD4xg7XZXRqp1TdSbuwLdn7bCPor+YvBRIYrVvVR7GcGUWOgwwvFsPNdko2o6Uj8jnxFSiYbbIy4qHcuKjzBtaYubkWxDY0owf+tCiOWzsZVU2+HCeSrv+/Fv32Ao/8mTJ2V+bk5uu+VWc3DQ7sWLTgfeVYb6Ly7KM888Iw+87vV24szMjDSf+h6LXykU1exGZcPXr9UtrgbYka601lvS3mirsKdp6x3psWke3Pm46Nf1XJwxQFMstF+KhIQcgU5KLKoXOM74sZ7IJswdrz/f9gNOPX9Ef6g/eX/oBmiueM537USCtXexZ+8c7xlpavX96Y9924YvxnBcyTVv8xLWqszA6wstMD9hu9WW5aUleerJp+R1r32tkW5udlYaV5hcwG6YUAkGMdicYKxnG0imxIJchLYEp5GL9q+erxQYyEUJ4RHk2LyXUEZEU8/0VCCX1e+VXGOBYEotq++bRaSWzyfv93XDvaoU2rmw7sI7ZmFOLn/rKh/4yXduLCwsyLGjx2RublbuuP0Om7J6nbYu1VqdbseItrK8LE98/gm5//77pJqNyPzevVL/wndrQVcWxZe/qMHiMpuuxYxORiyoRWjU0+OWE+2l5ZgW40Pqs7SyCmUnlBtOMFaW9GoDJIray0im1Q9rQNaNKsZD9+GRcFIauYxYgVQxDGTLyfXhn/nrG+dycs0puW53cmk9q9tjEOWalYFp+OjnHpV777nHnB779u2T2lUgFyiSIBIMTQRVnGROJKMY2gpqrcd12gvksv+Upf/54LDM9yxMKCei5nJ6ed0L7eQEi80/eKXRWl53/+RrWIzETvP3KJCLt4xwW3J95Gf/hpuFx44buYpmIT3hmXWXfcj1mUc+I3ffdZeN+9q/f7/UnvjHWtDVQZEAdqt649FMZHOS+SrsgVJ5WiSiNSkoMYclgc17CWWFE8xNQ3d5RfPQWlIziIUX2sn30P2Z8cm1Fmfyr/jjPTQJY3rlgz/1HUOHxuyczf5Ex1wcGpCLcV1Mrca0a5/65MNy15132jwbBw8elOrnv0sLurooUoM4G7fuJp+SyIhEP0PiwzS62sfGbwjmBQzLSkhwDeTNP2zVzPUUZqDFNMw23IO9Hbl456wAe8+2IRcODeaGP3XqlHkLb73lFjuOE6PHaOT1dRlTMjEJ6CcfekjuvOMOm7zmJiXXyDUgF+BGI2LcP47+VyL5RymEkVQa97xDkJqQAM43DyPNVJOZm54cTq6P3+chyMlV0FabyeVvX+6KR6YmJ61XPBOAMhlNt4v26mreDVvR/5MPfVLu0TrX1MSE7MWh8eQ/0YKuDbaSIu5bnYyNHyH9sL7nx3kUvnc+dkpPuPERSRXBPm8DJmLcoJjFAqEuRC5/l4pE81A1F+RaNvNvXDUS7nhIRtGtdktWllfMPGTO+IfVLLz//vtlz9SUt3M9/U+1kGsLv/HNcGdFCEGIW97wQBISdoS+KzmR7FXS0P6G784n1CyMuBC5/B10CUsIaVxB4TQgm4wovWi51rQ8XdMYnsJ+OOWagw9c/NDA7lE368rCPYc41dSRDQ2LYko/SRKV/J1gb/jexPcpwuND0uRidfko+r9ALCRjlUhWloQ8gKEmzKnBLLzr6wPr/uTE0ltAMh809nLDP75vW5Ef4SFtlbSlLW7bvBtFeMrW90uJk5MKDMlUBHtZs9mwRcQhDsUxUBJitdveeEyrNORitic69EaNlptg1wHiQ9i6JSTsBsV3h60Id595nR5Tz0KkkE2p4vuBqK6uyBPYa1pKBbKZGahiGgupBs31Cpm7wj9i2tJ2cduFEchkstkzaKQKiCUZl5ijkAlo6OpEfYpVTGjHYmo1nyQ0kq1qxIJknJhX1BISSgDzREcpEMvhBDNeOLNMsjj3OydApKil6JVBGOfXyLWZhlZIQkKpUCTUZmIVkWsulcxWMlFtlalWAtGhQb9CiGeZYaGRTOOI7m8uMiHhRkeRVEXZimFahhmIloJpOCno+kQaGoq2r7VWyzLaUkKYhSpxAbyEhPJgK6l2kiHMoeGaKBzUuLdvOaGYnzCu32XmYl3JqORKda6EhAuj0Oxc5ItHcGKwVCvAVERwfAw0XF3b/YLjCQllgpEr7yoUSAWKionjDPfv93tmKtLfkKEoCQkJOyPLSRS4ZUSzxBj6+l2Yg2gyABGppyUkJOyM0LfQ/tsWAa+caOtOLiUTc8QD9mkHS0hI2Bk+Agy4sgqE8h0mp4mjkaljraysWpy610jSXAkJF0Re57LQ/m8GdS0GUzLPxrlzCxan/SsnZUJCwrYYegsLoOEYprHu8XCdZBqV3URkMGW97l7EhISE7WErS0axLht0c6q6A4P6FoMkSaO/4U033WQjkOnF0ev3vISEhIRtkaGVEGs1RmEpyWz5IBUakScmJ23OjIZqMMZ9kdd7a2yr9BISEgKMIRDGRxjTQTeQTc1CzEDMQQjHoEr6IOLMAEwJkJCQsDPCguPe4x13O/UsF41rGu53zMRGo25mI7NEPfvMs3Lq9GkvISEhYVtYIzI93SEXhHKCKamC0FmXBfHQWPTMYOrr5194Xo4dOxaKSEhI2A5qFrojgwoXznXqWj6tWs9CMxEVPqfGujk2mO6a4f8JCQk7Q8mlpFL1RYMxs+zSWLy4tKga6qwsLS3lhPJhJiPmLTxw8KBMTEyEIhISErZDhkkIudBMay0l1uKinDlzRk6cOCkvvPiihsctIz0yer2+uejxHqYm5ISECyOTwbqtKImG6vUY8q/1q4GKhgtKtKcPPyNHtX519uwZWVpelLXVFdV1nJPauRISLoSso9qK8VmNekOazVG56dDNcuvtd8hdr75XXvPaB2Ru7345duKEEYxqVrfblkajCitDEQkJCdvB5tDwiUF9hHHN2rN0X8nW0LqWNSKPj1sjctUakUW11kD6/W4oIiEhYTsMe8VvA7yC01PTMqkEGx8fsz6FuOzNAdJPmish4ULIOt2umnq+DldRWK4VNFV70XnXNJwKbWEQLHV/Ski4MExzobzQRogt1L1OAofjlGrD+QxjYzOSkJCwM7KoiZgHfkgcJxGkYviJbVrZotmYNJMwKjkhIWF7WK94I1HQULaESiQQnXijGLUcpuXQbgkJCTsi6w/w/PVtdPFm6ZtlGOeIh2C4Cq17VDgnISFhZ2Q0GtNPkJl2V5eX5NjRF+TksRfl3JmTsnT2lKwunpVee00q6wNZ7/dsTBeaK/Y5TEgoA1A0W+U8wIkgZhFWtG7FkP2myvLyojz3zNNy5Pln5fSJo3Lq+BGT1sqSbCix+t2OjDYbqsXExnYlJJQF9GLKxT2AXj0Kx41QBBYN5CJTzsU8J3EKWdcwHicYxkNKQkIpYETaKn7Ajkc4sTy08Vx23HMWTo5pm5GnWyQhoRxY1/cdGRJL3/8CB9BYgVXm/HNybSJUQXZIBxrTLSGhPIgmH/Aw7g2xNSWf/ckajwskMtmGQvGY/gspCQk3PmI9CnHt5GnEI4wRgRf83zS1mpEGSm1Jy2UbsiUklAFFckWBYUatnF9DYilhArliYoFEhCF5CJJIt+jWgwkJNy42E8sSlFORVSGMlDEOqeYiYomRNAQmvr8dtiVeQsINjLynEmKLQyqhItlCnmFEoRyxHhr0uIjTq9HlCRBHKAAi0VOeguq2lNCIjf1KSCgL6BYYZajBnGC5BHZFvZPZEP+NdSOVLzpORj0Q+htaVg0gIKBAukB5YQkJ5cBQa9HzIpLLqHGeAAzDfDprJCbbn6o1NxXjnIa+2n+v25NOuyO9XhqJnFAe5FoLpRM5wwZvTEJGg3NoM7lChiGx1DzUwuLwf7RZnynY1ERMI5ETyoTIEdNaWHlh3wXq8G8Tw+CLMxJwCE6h0iAX6cO5NbyuRTpmpJExIaEkMI2Va60QUm0iDMQqMgLVpNUsH04yJIsTi64e5PYprbWwcJQi2DdnR0JCSYCmOk9rseXxgALDcs0VyWWay/8Z/fJ54plnQ+tZmuRkU0lIKAtyEkWthUSlVBRjFwJPCpljopEK7bU+MEKtrq7K8tKyhms2M68fX/e8CQklQE4oeBLjtg3ptFVU/Wwd+MiCDBU1Cys2626nyzTXbVlZW8sXG7cewoNEroQSIZLKoiFeEPaHQiYl1/LSkk02M1KtyQCNVBmRdZXeBnPqjkh3UJGFpRU5c25RVpRke/bMyN75eRs0lpBQFgy5MyRYkVSWlotvGYMiqUNpxUsGqqkgGF72bn9D2t116fQG0tEEtFhftRV5mBrAGpITEkqCSJhIKkhkpIJbFiVSFKUUq0hGpwa9MLyu5U4M6lycVNM8zLbLSpPtdtvMw4EeS0goDSJpLO77FrCFYznxTJRTtF9BLlzrmmREYhIaW9FfjzWaDZtpt9lgrng1HW3mJ18nOSGhdIBHthF3UiGbieXu+ow1j9mhexN1r+Zo0xZeGBsdM1JBIjyEdPDVHdu3Tr7WDzEhoRyATEao8F9JkKeZ6L8isSwkFcLQaZcENBSL20Gygdarzpw5K6dPn5alpUXr9kRdi1l5IV5CQtlg1IJIMQxEsi3Gg2S0WcW6FvUsGsboT0gdrLW2JidPnLCF76hnxUk6MCPTXPEJZQKVoCj+bzOcYAWyGbkUkIsZdjudjvV6R0PhuGjT+13rV3SRYg1kBOKhvfTchITyQJVKLuzm/xSBDE6qENJNisQ4RbUNJ1GCQao11Vp00IVQc7Nzsn//fg1nzRz0/MkVn1AewKOiDJmlZEKcVQXzEOtP0+jKhKt9VsmDaYg30DyFmjY1NSUHDhyQ6elpKwhzEBMS8iUklAZFzWUS0guIJItic8WjiQghDdqKfeIg9j1k37aQTjwhodRAMxUEnuRxPazkchOPBmMahjEPnWxq9il/sB0hUiSglWnC/4SEcoA3f5M6Ca+/cyHfHe4rwbI4GWjUXBa3fSWX5rKuUVoqHXUhIMfjoLGEhPLA6TUk2Bb1UtBaUcyhETlpJp+XYYBAcVCkabUwtN9YCekSEsqCyAsUkO0XieaAbEXJvDVZNRGuQzSShiYQS/fpiUEx7q4PmsvO4fSEhHIgVpW2FYhWiA/bg1Uz0QUKEpmwH0OVaBZSL6PHhp6TyJVQOpxHqO0kkCyKcqtAJCUZ3aCMbLbv82uguTjZx3AlzZVQPqBYkPMIpWJaKxArai0sPKs4GVnMFGTXiWQmoIbA59Ho2UmayQsknpBQEvC+57KVTPChkOZx1VyDPouNk0CmgXQ7PmfG0vKStNptMwlpWCbNKmlKrm6341dMSCgJbAgJSihKSIcgqJmcdFGUUxndmeiNwZATMw8Jq1WLMziSY4zvqtfqUm80pNlsSqPRlNHRUS87IaEEyEkVRP/5AWdWrtVMk4WOGFm32zOTz8O+MpIBk04mzEQ67nKMqdVarTXTYKbZlpa88ISEEmArsYxaOb8isYJJaFagkotDmIV02KW/YLvTViJ5r3gI5b03vI5lgyTRaGk8V0LJsGnGXUsgHGqvoMByDYZkDTXzYmdcNBcNxesDhvL3ZU011LlzC6alVlZWbHwXJOQYhEtIKAugkUnQXudL4ZidoHU0Y1hoNEYbTUxOyOzsnMzPz8vevXtl3959Mjc/Z1OqTUxOWl2LehgaLCGhLIjEgTQe30I02yxj2BfJeqxYgrdQSYYGm5iYlNm5WSPWnBJsz8weG3YyPu5zanAiAysxGxMSyoJNRDLybNnP0y2zxa2HBpoLcnndit7wbjNiIvZ6jO8amotuDkJbSklIKBc2aaetonUyejSZy145leFujxoJQtHe1QltXWstr2Mx7B+vIW5G8mES4k1MSCgN9L13cYIVSWWEsi6EIVR+ILYmMhODWkI2IrW6r3VMDw00mDE1wMingvZKk4ImlAlGKBMnlBMNDeVeRCOYyrBfblVs9ifgJyiB8NFjGsY0QhOPW6EEcT8hoYTItVYUJZV3gi+E0aVOvQugkahbAetrWOAQ0SiJWwmlRCDVkAdhH4IVQhNfZ0vNP9SbbvSJovevZQppFGDIQw8SEkoD3n2VTa/+1v0tyDUXlTFyUgejMy+AXMAKCMRy1uoW9hMSygDe9k1vfPH934EKNvuTRdRmhDC0Ydm88Jbm3T0oyEgVCyTusYSE8iHwYMiB7flgPTQsErQUmsxWjdTcsR7G//NP3q64hIQbFBAqylYEL3pRaLZycumfnacb3kLqYZWNgqYqeBRNbMeSEhJKAV73ogBoUSSTKSYVm55QJauMZGoGqinYY7iJai6tby2fW5SzJ09Ja3lVGiNVadbqUlOzcYMVJsNyQvTcSEgoDUz7RFoFQCwLNIzEigK56ISLy73b7qi2EpmamJQ9k1MyovHuWkv67a6RSs8w4lEArdDVWlrlJKE8yDVWbs05sQh9gCRClcq1Vk4u5oSHNJiDzBd/yy23WsddwFATxnkxtJ88tEA36g1bwyshoYwwUgEIphJDr1INiZbBvzj4EfL0VUsx5J/h/KQb6ei1YSdqgaYdvQ0sIaEsgCdsRgKIZGlBQhqw/xzXSGZ1J42Njo1apoWFs3LmzBnrrItWa7ImcqNuRLPe80oyesl3O2mSmoQSwViUB8aZXEJarsUsYUMy7MOekgVtRGdDNBXEgkCkQSrviIimqrhdiYbT8xISygLXW4FMgUC5hDQQ85CW4Zyg8sXQEupejECemRkuchfHcjGgklOjSQjhEhLKgsgfp1VIiMDJYcJfaK5SjmQ1G26iBLO6VtUcFQ01AyEdmRISEhSBXR5EYvmQrFwqPvwkH4LCiEnGc0EsyMTC4svLy9aOxRRr1Ltwu7um8gGVaDo0WkJCWcB7v9n8i/8UaCqV4fCTMHCSiKuxijUmQxxjoKZxrjFQBY1mBNNEJg6l0SwhoSzAHMy3AsmAa62CORgIllmdSgkVmUkiGsu9g+7EYINYnGyFBeIlJCQUoPQoEi3DMwi5YIslKKHQTBAMQtm0a4id4GWQ19ibkFAaGG1cIELkArDk4bGcXDgyzMTTdNRZPOD5iAezkTRNjGoxkSuhTPC338UxjMV4ftwiSi4iQ0LZIXO705EXVzyay0lnh3KtlciVUFZEKhSRp8EVNg2VNx7xzcdzMWDSplIzcrlr0cnn50MsjiUklAb2/gdh15IidwJiPIQZAyNNC3luywyiZsIsRHORwU8JZuF60lwJ5YEzIAh8CDwxBN5YSgjZN4cGLnjMPRLo9Y6nMHoLY0EWKqI1qPTySEJCGRB4YMKuJRVIBUI8cibr9AbS7aspaNpLyTSiiSPuMRypYhLS5YkzOQ6h0FxqEkaWJSSUAEaaKIE8OTSek8yO2Z+ahZWqLK+2paME28gqsrK2pvvL0t/oScZ4SCWXUs+EHvKQi7axtLJkQplgVSGVODASD3tMs1HIMW77HmatdlcWl1dkYXFRur2+jE+My/y+eZmdm7GhJv0+PeQxHXs+YSjTWCdnRkLJgAMPMVIFMtkIkZxQheMhLZuYmLCOu/QhZPnWY8eOydNPPy1Hjx6V5eUlW5Sh2+tKr6fksu5RFAi5klmYUB5EwkRSOcmGpPL0oRi5GGbSbI7aEBPW3Dp69Jg89+xzckzJtbS0HIjVz5cSQnPlo5ITEkqCzZorkMhI5cTy9CAhLaPuxOJ27KClohZjXeS1tdV8sg0v2AuMLE5IKAvclTfUYPov7Ps/S2ezuKdl4+PjPl/GyIgQ37dvv8zvnTdXPJoq9vJ1D4meZPBCEhLKgkgq4018/4N4OiHHLLOl2SwzrNoPwZjxaa8Sa3ral2odGxv3Drx5J15v97JC+JeQUBb4Sx+I4+9/LoFY4UCenmHyMcSfNYUwEVndf1Rlz549KtNSVRPRhqDocRqYTYMZKC0hoRwokkn/2dtv+wViFfOQlDGkf2x0zBJYqtVmdVL+oKmYsCZqLBqVraFMhX3NnpBQHli1aFg1ssAUTWg83gZZq9U2jQWJWmu+BrKPRnYi4dCgexREg4AAz2KMJySUC5sJthOxgPWKv1jkKi8RK6FkiERytuj/i6CNOTRyggVtFRWdpSPKJQgV5yx0ciWCJSTsCOVIrrmcVAHGKYhmqs1olLdE5+1cnjUhoQywRmOE9994EBqRC+IrnAxCuH6+5kJymoV9YAXT9UlPovB4SkJCGRB7X0SCnU+qsA9H6HShcp7msj395/tDolmXjlhAUlsJJUPUXJFgrr2K4oSKRNtecxVgBAtpVucKBSWzMKFsiJrL3v3Ag6jFfL+o0YLmCucOYWSKZBtGjVyhMN3zxISEsgBeFJVPIWpsiNqG0P8ky2Qg3c6a2oeMLu5LRc2/kYzh/vQp9MZi1uyip1SWVWUwqEhzdFJq9bT4XUJ5UNAzIVJklxPLtFoIScuqVZFOe1WqqsPWBwwpYT4NVJ1rqYGGfa2kiYxIJatJuzuQyalZaY5NWoEJCaVC0bIrwOmlKBAsYwlWhpjQpYks9IRn0hp6arTb9NboCws1ZNmIpvdszBeVtejoSEgoA6L/YavoP4+HfEQsrv8yKl9UyGxfM1k/whFmgFJNpWmMPGafHUYqQ7qeks/rXgkJ5UCcEQ1ebJYwaiQepz8u6RpucWhERjK0RA9Z3I+Y98O0m8haqyVtOvgmJJQEObmUNJtlSDQnmRPLOryP2mJ3DUvAXsQsRDuxTpebhN5hF1OQfJy0urIirbVWuGxCwo2PTdppqxSJBrGMaEqufq8nrG9Mv0G0FuRh/Fa9XtO6WN1P0n26QdW1fob2YgoAiJeQUBbgPTcPOhrpPCG9IDEvQ05iHYoh/b6Cf9MWu2NoCSezTxwTMda1SE9IKB/cL0htaShxG4JcyhFnWvR4WGOxEghHRhzX1Rx1cmEa2tiuQMKEhLLA3Osx8pLQTLjiTYWpFoJEsMtVH43HSrLgxGg2mrbPOXum9yjZRk3bJSSUB7BqG2a56grCP4VRhW4XCtNcIQfmHqOOIRt1sW63Y04OhFNqqsEgXavd5tSEhFLAdIuRxne2oVnOMf4R4m9n1xAPmhJTQVsxGSiNygASWs9fFWv7SkgoCeCCiVaN3IqDYJFtgUXGG1VQKnFKQkvYxKwA6lVxfg2bBUql3mjI1PS0zQ6VkFAWGKkCsaIENWbHI7FMWI0ViWSKZqHzy+O445koFFLhnqdA6mQQa2pyitMSEkqBIqlysS1iyJ3YCUP5xY4m8+dHPWsIKQTEGZ9oYAbhcEJCKcBgYZdIKjRXkJxikMj+jD9596fAu8J/b9Pq9brWwIwGm5iYtJNoeE59CxPKhEihIqkCxfyA/bNI2A3ewqilLCjGFfSCP3vmrGksGpbpLgV7WVIoIaE0CITajlS253923NMEh0aY3cnIFBgV4ngFl5aW5LnnnpUXX3xBCdbWOlfFtBlrdyUklAVOId/4iyRzMvlxD4f/sg7rbg3WlThdaYyOypiaf0i1XrN61oH9++Tuu+6UqckJ6XXbsjHoq7rbkNpIblEmJNz4CFoL4jitdINgQTgW4z6BjZKr1mhIjR4YqsGYZKPT7Umv37dMmIZNPT43OyvjY6N6wkALWZeqEqteT+1cCeVBJI5SZxjPxSeryd31KvgkTP3QVR7zsNfv2UIM9Magwdh6a1SrMj09LePjE1YQJyF91XgJCWUBlp6JKakt5FKlFAnmQlzJRe8LZgmNGdFesdNuu9WStbU1qdaqUlMz0dZDhliM+Up9CxNKhE1kKkgklBEsKB6fZk3NQsugCTgwWH8LZwaewXPnzsmLLx6R5559VhbOLhjRGOaPhqMFGpMxIaEsKJp8WwX+xIlAnVyIdXr3HvCQBg3F4Ei01srKipw8eVJeeOFFOX7ihCzrPieRDxLWqmnISUJ5MCSNSyTTVkLlM++qlZd5j3fmJdwwYo2OsQD5pMzMzMjU9JSZg2gsTmZEMkTkHPYTEsqCIYG2IZSSKRLKJBzLsBXNxNOKGlqJeTLm5+bl9ttvl3tefY/ccsstMjExYemMSOYkGpAhWUJCWTAkU1EgVVGDDTUXktHrAtLQi5fxWwPVSvSAx0O4f/9+mZudk3qtnveMh1IMpuSchISyIBIoJ1HUVHk8iFqBMZ6dPnNann/+BXn2uefMabG8vGyCQ4M1kpnFJpqBnEjPjNWV1eQtTCgVojYqkspJpHELVZQfKCiXvmRoIMw8Tmo0Mf1GtagN61NIBoabxGH/sV5macldmFAi+KJ2QQKZnGj0cNoSmh8jkMtO1gM2DsX6DvrchdiAdIHCJMTlqAyz/Th/YUJCWeCL2rmWwizcrL2iuHOQEC2WMV8GXsCuai96Z7jN6L0v4oSHNrwfzQW5Gk6uNLVaQpmwVWsZgUKcBUy2xs0sxLqDRMzmhCpjWl4beaxiGsu8ghVTgdS7jHAqySxMKBOcTEMS7SgFAtqQE3gSiUOdi0ZiSEVhnW7HnRkqhJ7fJSGhLNhEoJxkITRCnU+8DMLQ1mWudjRYrysL5xZkcXHRvIX0LcQ9T50LgqHIOCchoUyw6lKsTxl5toaxLjZMs467eAExA0k4dvy4PPXkU3LkyBFZWlq2BRfwgqDJMA1jX6rUhJxQJlCHQiKRrM1LQ7hQFPOqW1VqQ8nVob2KqaBY3K4rx44eszavE/QnXFZytVs+lzwnqCmICqRuBjsTEsqCnFRBog9iK6kisQgzSINzIvZ476pZyNgUXPEM8W+32mYagobNtuvdn1h1MiGhLHBTL0qBZKpsnFxFgvk52dTkpDUeQxhIRP2LLlF03GV+wrGxUZsYlBHJTAgaPYnMY5iQUBbQfuVtWJtJZcLgSOVNceo1MwuxHVdWVm21SDro3nX3XfK6171O7rzzTpnfOy+TSr7xiXGb9QnNFV30OD8SEsqCqJUiiWxApIVRItk0DATMzAuoEWbSnZ+fl1ff/Wp59atfLQcPHpTJiUlb0YRGYzQVDcfRDc+FEhLKgkguI5iFqqUgGGQLBItaDb8EJMvozhTng4+EoVcG6aalMgjFfE/eeTEWQGEJCWVBkVw5qcwMLGqvLZoLD+Hq6op5BmnXotGYA0Y02okRjReZSTzprYQyYRO5ghRJNeyZAU9cMupatGfRC54TzOTTzUikGWI/jFggIA9mZEJCwlbAEZesVqvK+PiYTE1NmXkIgXCzQzYI5is2DLs80Yk3OTQSEl4aGX0J8Qgy8tjqXcH8AxAI8rGQF2lGKt0HDKJMSCgPhhppKBExXkxTcpGAfahqyYadoJlwuTPOC2GZVhqZe92ekYtZn7AxM9VoCQkJO8PmLVTuGIGC7yIfu2WbeUVCnIOKaCImJCTsDCUXZPGV8AANY5iGRihcjuZu3KzuDIlbCQmKbbgRwOQYau5lZg4Cdyu6e9EJpvHgywfRqRHJmJBQXuxMLJBh7kEUplYDkCjv8Wukcg1mRItlBTMyIaE84OXfKkVs3VeOQCJbeTxoLkgUTcFNZmHOLLg1zJ+QkLA9gkOjQC40looRStmYE8yOKoIzIzk0EhK2YAsljFGRLPDFNFYuRi/+ueTQjIlcCQkBm8jhUHpkfRa763ZleWnRiDc62pRGrQ7LjGDUx3r9gfQG69LudKVarcuGpo1omJCQsAWQyPTOhmS9Xkd6SrDV5WVzZFTVPDQTMWgu651hpuKGdHsDqYxUjVyVkbSEUELC+RiaeRmdcxniT+94JgVlRDJdnazOVdBeCCaizaWRkJCwDTZzwzzqdH+CVKyJHGd6snYsPYbGQpNZX0I9l/Eqftx0X0JCybGzsslsdHFo4wKQhkZlZt4ljufQ9jUfQNOh0RK5EhIujAzSMISfHvDVas1COugigJGWTLtmPeaVVLacEOSyowkJCY6iBiOuFh+2H2afk8tJhFaCSNZLwzTXkGzsG5LmSig7tqXAkGRZXO8YQrFBKhwaVgdToc7FMQgYCZfqXAmlh73+O9e3gC04Hglj3kCNk9bt9iwEkVwURj7KTNRKKBUqvPQF2USsYnyILJp742PjNtMTLnlMRIb++6xQmU1c02q1bPg/5GOlyUi8hISE7ZHhhjfCqGaiwRgtxZRqjEJmoXH2Oe7tW8FEVDENlpBQdlzAhLN2Lqs/Weh5qXvFBI45oei5MeIk1P1ErYQEsLN5mDUaTZ/8M5iHdHWiMbnb7ZjpZ2O91AyMHsOo4RISEi6sYjLWOI4z66KtokPDPYUDJRNzFCqxqkynttlVn5BQHvC+b5ULw/oW2mhj3bARIU+xQdlMwdBDg8XJI7kSEhKKOJ9sWafTVk3Vs0GRmHvRmcEyQo16Y6i5jFzeY97IlTRXQkLA9lywkcjRxDPHRRjyXySSp292aCQkJATsQAdb5QQTENMPBmIi5o3IYWnWIbmC6H7SWwnlAm/8TmKO9fOQYQYyZTV5UGCYf5iD1Ld8BZRVy8i+m4Yj+fJCCQkJQ2wm2IabhR4dsjD+ryvJJienbPG7WOcyTafEwquYkJCwGUYw6x6lmot/xi+VwDOFRyATWg0CosU6na6FyPLSsuVJSEgoIieRk4uEXHPBsBjovyh0f2KBL9q/mA6ARuaEhITAmyD893/BW2jQgCh7kWjs0xXK3POs5l+r504N3PUJCeWBc+J8GcL2Ckm2EINppy2ZSbfeGnGyGksLa3epYcnq/gkJCQ5jSE4fIjYSOaT4vhPNyIRbfmDmH8NNVlZWbHnXtbU1c9WjvRISEgKD8n8WMQSHhicMkxW6ExuLWcJ1aWlJlpeXpKP1reKxhIQywziziThD5OrHzUKz+Iw4zAiF+536FloKE5G+hY1mw9Jo90pIKAvQP9vJTsQCofuTxlTMRV8pLCiuab1e3/abo6Oyf/9+mZmZ1fzecz4hoTyITLqQbEZmWipoK9gF2dBSjFAeUYJNTkzI2NioeQt9kfENS4dwCQkJO8PMwmgGRjd7JNxg0Lf6FkSr1bzLk2ksJemEki4hIWFnmFkIoapan4I8CO1ZrNpvUvc0ukCR9+jRo/L45x+XF55/PhSRkJCwFRiJRi40lQ/l95l3Mf+Y5tqmutY6GNqKcV/tVtu6PR1Tgp04ccJLSUhIOB/Krk2NVXGIf7fTVXOwZV2d4vguGo8h4czMjMnY2Hg4KyEhoYjo2jCHBtrLtJPWr2gsXji3IKdPn5aFhQVLZw5Dujuh0WZnZ2Xvvn3SHE3dnxIStsKIFdiVkwsttdZqydLiopw5c0ZOnjwlzz37rDzzzDO2oiRajZ4aoFGv29rJCQllhtLmPMnVliIbMMsTJp9uHKw3RqXRVE01PiGqquT0mQU5cuSInDh1UtbWVlVWxActp3auhPLCiGSIjDpfskG3q5UtBkbWhTkM9+47IAcP3Sw333q73HHXq2Vmfq8sLC7J2YWzVv/q9ztSq2VSSeRKKCmgjmMY2w5ZnEKtKDQSk049a3JyUutc4zLaHFVSVW2GKO+h0QtFJCTc+CjqpJfgVI4MolDn2k5oOJ6anLIG49ExNRcbDZu/kGMMnExIKA02seulQbYsDtvfTsiC9qKzrk1KUw9aTgk2ohosIaE8KLIrygWgh89jiOqswnl0g6rYVGq0dcXJQZmgBrMxISHhfET62NRqaCO6OlloXaBC3cvcgsBJBmLfQ8KEhITNMGIFdhlDjDj8acimEY/bskHDzrxgnToaveZTnSshIQd82rB/tqvYkKzX9xVN+r2+9cbAC9i3/Z4eX1cN5vUrTEMIxpzydIUib0JCQkCusoYMU81VMROwUa/J0rkFOfz0F+T5Z5+Wk8dfkJPHXpTTx49Ka3VJNgZKwm5Hmo26bKgSo5NvQkJCpNL5wOYLw0uq0m6tyqkTx+XsqeOyfO6MLC2cVsKdlq6mi5JrvdeVupIQCzENlkxIKCisbUCLsB7zo2YzxpwxfeuJnum85ISEMoH3f2sdayvCHBrbi/7zU8J5BPk+xxMSSoicAzkjtueCkctIZEQiZDfs23kx3fNRkOdNSCgPcPq59LWGpKLVJNYPZ7TIkA9DLzvdBJVczhnLwPKthCZGIzuliDydSEJCSQCpEPOmG7kGNprEljx2Upgvgn8QzDpeQJScUDvFC5KQUEYUNVckFxM3oblYpMTYpVBq5dorr3MZQjxP24ZLMW9+TkJCCeAaKwrtvGgtxDtVFPmABkO8zqU4jywXIE8iVkLZQP0qF9NahU4XGuaaTfejdss8gy+sQGMyAyLpAUUcsW5PyiXmL2RuQyYHZRq2uoYJCWXBOiagCcRyidyJ5iKh9W4KhLN2LtgT7URjFkmm24j6MYtpOn0LORF1mJBQFrgJ6PUsJ9aQXC5BcwWiGbmMOEYsJ5PTSVmkTHLzzxdkcC2mFbtuT9qdthbAeK+EhHIAr6B7BoMTIxCN9es2E81NRgiYmT8ev7xppwDjlmos3RgY6bPu1m08F4XBTlRkQkJZwPArJI4SycVGjvgQLB9FoqzJ40SoZyn4j7KCWLgXIVyc4trrY2EMl+aJ5yQklAFGJBMGDMf4UHJiESpvjHDF4SQONwfNJNQkO1G3SDhAWuq4m1AmQCqT7bSXiWuszVqMiO04ueAPda5IMOxL5tPAW8gSrqShtTaZkQkJNzicNCpKGifRUPJ9U1LOpZDXd5wsgTDRNAzEWl1bleXlZVlbXbP6lhFPK3cJCWWEMSVwxpbesngkW+SSElIZlBMLuuDG0BQ1ATPpD0Tavb6sttqyosRaY60u8nM8DfNPKCOcWSabiYW2ihZgINe5cwuWyIxOpowqI7JRqUpfyTXQeH+9IguLK3J64ZysrLVkbm6vHDhwIGmuhFIiUgcFcz6xolhW6mdU1Gy0v2oquneI9PrrprHanZ60uj0lmBJJ8xBQ92qpJksT1CSUCW7yRRl6DD10Dlk8pKPBMtqwfMdX7Hdnhnf3oG7lXZ3qMjo6ZlMBdDodW+0ktXMllAm+bHEQa/f1tt98KsLQXAVfmF8GyZg/A3LFfoS+IIOfxPTVrMPFMq6kmemoBKT12bweCQklAXPH5GKECu2/MQ6xclHNxuqsUYXRbkV8dHRUxsdZwX/MMnbVLGy11kxjQSq0GXlZrCEhoSxA6diU7kUNFglmE+pGcW7Qs0mZpTpItRHE8kJcW6G1mNPw1MmTthDe4uKi9Lpdq2tBOrRZQkJZAD82C04MHBqImOQIRl1GBMLE3u7ujNf/qqGoW505e0aWl5fsmBEwnIjaS0goC7DaovTDWC4bZqKWHW2/vnhJx0I6tWPxmbqyk/oDM/042FFptVvS1X3IhDabnp6Wyakp01rUuyLJEhLKAB9qEgZKWu93JVYYZgKRnFxDgWBGrjjJBmLkaivJOj6kZGJyQubn52Xv3r0yreTCxiSfa7mEhHJgOJ7Lh5Xw/jMw0sdvuabaTDDVXNiKaCK8IGgnO1ELsHqVVuAmxp1cExOTdhGcGWYyqmZLSCgL4MhQhiaim4mRdE68mJ5tPskn27A4q5looXFoSZyEA0lIKBviu+/CfhBYEtM8p8UJA7lgWrAnVZxkfhKNyxQA2eKQE/eOFN0jCQk3Nnj3kU0k0w2O6J9iS1yh5AoZixK0Fyyy5Vk1byQex73/VCJXQnlwHkdyMnncQ8tpoe56net8eCIH46DISC5gPn4lWEJCWWCz6yJB8bgCCqQy0UzFUDflz9bGsdhApiGtzCNMEKUqMZiNxOkRnIb5J5QJ7iF0iRPQuAfRicbENRDLaAW5lHjKH7o9eS9f69a0RSAZp1hDsxWiJahGY0tIKAts8YUopsVcgxW1l7Mr7q9DLicVWiqSyTSWhtS3qFtxTlSHwLt8JHIllAfuZodYfVkP7nYbOYLCCc4/lJCFRhi8hZZILcvJgoaiDyENYbGhmDR6b8BISEW6MTUhoSyIpAmvPWzJ1YumQzC0mGm0oNUyEiNRCLEp20qktbU16fZ6rrk0D+QybaZajYqdm4sJCeUAzr1thYPGO+WRaTPXapiPmXWRV8LEGZ0wE+mdQcdcRinbSOWt9TG61KskJJQFNvlnaIKK8bhv7CpqLcxGlYy+UZh5sXcvSoy6FiMqQeycyPFOux2G+bdsRqiEhLJgqK0iwVTwqlOhQnPhk4haKwg5zT6Mw/chEL3iIVGn084rbvTQQLuhuRjW3KinVU4SyofNda0QKiCcCfEg2Whz1DrtAmPc+sBYiDZbXV2VM2fOysK5BVlaWpKVlVUjID1+6dybkFAaQCQT1FRRIJJrMiw+r0oFszGSBNY1Gk2Z2TMj+/cfkEOHDsnNN98it992m9yi4cGDB2V+bk6mpqak2WwKc28kJJQHyiIV55Q7Ad0RiAfd+VOcFcoEtzseQjLi3BgbH5M9M3tkdm5W9uyZlvHxcRv2z5wBFIBGw3RcWVmxSyYklAFOKo/EuBOMo5iE3i6cEwup1etGKlqUzbHR80Ff0XHh9bCODQiz2XZRf2GsV0JCeWDMsv8Wz4lFd0DXXDYDbyQWmowDDONHpWE72hpcSrJ2C4dG1yapwXSkPgYBgavA1M6VUCI4t/yf/fHP47BLKWHaK44YMaKhjfAAxplCiXNS3tXJ/jusLGOsHg9ES0goA+AQYpxii6FuwBVOkECysCayH4RJNihyvZBGaBLieZqHCQnlAJwIVAr/3KHhgA+msSBWJFnUULAN0KaFOx6QyTkUCeUoJCUklAJGHttsJ0AjgV+mw0ydIZbgI5GJYRLCPG80Hljc0iiAwkyIu7CbkFAa5BwY7kQOOKecXDYVQNiyWHeKDgrIhWse4FqkBGesF2aS/0tIKAeGHGCLHLBDikAs6wQfxjyiueiNAXBoRM3FmBVgq06yaSFW18oJ5RdISCgNeOGLUoBxCY0ViGWC5jKWKfI6l5INMbMwpG2LnGgJCTc+XGMVNn3/XeFw1AkVuZNzykIVy6ybsU7VGz19c3+G59X9UGBCQtnAa5+LR9gAHNpKLtIyzEHrldHpWNZBtycLp8/IsRdflOWFRWlWazLeaEpjpCqDXt/y0chM592EhLLAqaSbKZjILycZ2sdGIRu5XDmRltVY1K5adXJp2t75eXnVTYdkanxC+p2utFZWpdtqS1/JxCAwLsB88XTeTUgoDSKPjAGbSeaaK2itaBaiuWxO+IaPzcJzODk5JTfddFDm5uasAIb7t9pt61tIAWg6+hXSmTchoSxwAnnENuIghs48C/I+hrCNLk9oIuKsIsm6Q6zpioZyhnJiONkuEq+UkFAShHd+SCwPN7MgarRArr4SCVXGWC7AoMhzCwvWMx6txgqTrCJJnK4daDc68nI8IaEsCLTKicXfVrgKci+7ay7I0qddi/FcrELu01djAjoDh5PX+AH9C5W3hISyICgu+zfUWP4fGDvgCJoLYiGQCaIwhwbzYszOzsr0nmkbHEm6TYIY5mGzwvT8cCLFJSSUArz/LkquYlyZFpUQXGKEvonyxxwakWBMp4YZyH60GwmdkEFzKVw9DlmbkHCjw+b3xGJTiy66283lbvpGuTLiUxJWay74KzJIYwnKNjIx8nh5edmWpCQzmYyASjzyQio0mZuSCQnlQFFzxbW6IBqKxhXRiE1HCI/QXFXIxchj454qJuYopAAyoLVc5bn9OD42bh5EmAoZzfBMSCgJIqGsHSsX3YcGRq7Mpr+omfbCLFQOdZkbQ7VQNPPI5Oqtljs3OLloFoJErYQyYZPmKgjsMrMQ3ihf4mzUSMaq/T4/hvcdhFBMWGOmoMYZUQmxohiszESvhPJgSK7N4prLlRKWXSSWkcszYP6hoIa94IuarEgs0qMkJJQFmxwauTgPTHMpd4pay6pWsCpvx9I/MjOJPJ150WhW51LJtZbCyKWkTEgoC4Z1Lt5/TTBxteVay6296kjNHRtYfVAG5pl20s3Itc5o5L6pPdNcRj40m2ZWkIcLJSSUBT4P4bBuhU+CKQkbjbr1tSVOTyYcGZiH1pDcV+2EigNOoEC0GFdiDTWXko9NiZU0V0KZYLM6YcWZlsIrCLkCqUycZEauKlpL8/oKkj6dNYxCvVnFTIU42sx4paEhKKykuBLKhKh0jFxq/kEiyGR9b5FALvey0w9X8/YGG9Lp9aWPItIT19FMlXWpVPWgSiVjH33FcBMIhguSlSUD2RISSgBI5UJjsdev6OIEyaLgxLC6luYzcg02MllabUur11P6VKStmqzT7WhpdIdSM1CJprUwNR0Hykwaj9etXQzGJiSUBW7RucTF+S2uZKMu5pbdsMpEG1jW7vRkeWVFFheXbA3ksbFRmWGFk5k9UqvXpNfv2kDJ/sC9h9blI9mECSVDkVy2Ble+73UxNBW0MGefNTCrpTc97T3gm6Oj5iF87rnn5HOf+5wcPnxYFhYWrLc89TJc83FBBk6EpQkJZYFpKCOVu9097iFOvwjTXEYwJRe24qgSq64ho5CPHT8uL77wgpw4cUJWVpaNVKx0wuhk2r+8N4cXkJBQFnivJQjljj6PQy6th5nm2qy1jFxjY2M2fguXPDM6sdjd9J49lpH5M2JGm4AjmIQu4aoJCSWAOStMYg8MFyeY17mcF84XlFAGmfDZN+p1mVFSHThwwJZn5UQyYV9GT0nsHhUJlpBQFuSEsrFakVyuvbzORa6oucJq/tSz0FCNZlP27t0rc7NzMjU9ZSOSp6w+NmQoc8dTcbNiErkSSoR8EGQkGZwIvEDxuObyDr4DVgqCXKg0EqCMuRiVjTSGTUxMmNjYlFiIeUZoVgaJXAnlQRy+H03DTR0tgkMDkzCahd4WrKyj3gVWV1dsMXG0knlFMAmDpqIg763BmsisoZzIlVAeRG1VdGrAHRuSFdSNde4NDg20l3V/okEYreULi/toZNQcRLKMsFCPG6H0D/YmbiWUCVtNwSixjQti2JAU01ouaizqASfeMNwETTQiuRNj2Iic2JVQHuSaC3MwEMw1l5PL9A78CMQyzcWJQ8Xm2irfIx4IF0/0eQMSsRLKhaK2iqTadpyj8YRQyZUfNFIFaMSJ5QKVIiNdcyGeNSGhDIg9NFxTuXcQwIMiqZxYLq65igRDcs0V/3kB1L2cZD4tQEJCWZBrKyPXUOkoM5QbKJ8hqVz0nEgsJ1WARjzdCwGc4LYk3Z/SQMmEcmFIrK2mYFFzuT8iynmaqwgnXJFcxQIsOSGhFDAuBDFEUqGxilpL467SGMFvMWawYVfjGomECokGyBRJtbFROJCQUAr4O+/vf6EnBl2dqCppPJqGlltJqOQaSGt1WSMc7EtFTb4RTfXZa5h1V6TLMkOq5EZG6tLrb8jU9Kw0RyetkISEsiHvhaFVJKpJ9MYwiy5adZrHyNWoj2imrlTRYbCwz6DIvrBulwmM1NyViuZTgnW6A2mMTkit4b06EhJKBcijhMBrbloL7WVaC54ouYxagVyxQSz2j3J151OrMTKZOH2qmCqq1+1Ju922tGQUJpQJsU7lXZycUEzsxJQXrr0gGHkglnkKhzPuAktUEsVhzOxznDTOohC6S9mK/hpPSCgLIrkwCaljQSoUEAIvSDMvuuYxN6B7F4e+e6WXF8QG4fQvzvIEUyEcWRiiggZLSCgLvOOEayfqWCgXI1c+9QUCcxRoLXhFp12GldD6DJs4ic673W7H2EgPYEDBtjCe5ltN5EooGaLLPZqEEMo1V3BqaFquuVQBGbmsXqWZOID2wkvoEx76RIexwyKZ63Vft6unpiEFJiSUBflc8YRKsDja2LUWzoxg7SkwC63O1W61rB5ldatKJjUlVLPZlPHxMSMX47psAhuNAyMVJFTCJSSUBXmdS3li8xLiITSN5eRyN3zIrPywOhdaCtPP2rQ0HfLggo/TqcFCyAa5ojqk7sV5CQllQSSXazCcGjgxXKy+pWmWR/OaWYjmMlOw6o4KEhnSD3FIN22mmou6FsTiOPNsjI+N2drJCQllQXRoIG4WuqKBWK616G+LeJ2LjvN530I2GBZciLZPhW1trWUTg/ZtvWRnLs4M0hISygI6ViD0YnIibShP3HFhKwEZbwiVOU4lyBVi4b/FQsQyaSEwlJOpZ0FEPItprviEMgHlYqIEg1xwA6sOn4TPq+FKycnlqgrTMGeaRWzHQT1rzFbxZ4ZRZr1RUmka88jP7JkJuRISbnz0lFgInnXqV9DEeeHEipJrLjQbLANwjZiJpiFoKpwZhMxf6I1kGzbl2th46luYUB70e6q1rDvgUHMxjyczoUEyI1bQXtaVUP/MLDSCGauQPAL5rOIGGo2mnUj/QrwiCQllwoatXIfou29eQQ0r8CCEShejEaKpiDk0QNRb8QBA/UWXPHWsickJYymODvz7CQllQZEXRijohZIxRRNFYURzwS3omot0K4EEDzgPl/upU6dkbW3VCIaZiOuxo6RLSCgNjBseNRrxL2gw49cmoKQqbhZaPkvzEtxMpJ1rIKsry3LkyIty9OgR6SjRGEjJYniry0uckZBQKgR+OanYcqbFY2798S/raB2q11+XVqcjo2PjavpNyvjEpHWDQlPdcsvN8oYHXi975+eUVB0bTMnSyA2WcE1IKAlcF+mL7wxyFIhl4DDHLY9qrubYmCBMV80Cd/R4b7Vb1rYFM+kWNTE+ruZgQ1m6rqdsSK3KYg2JXAklQk6aPDB+8DdEPOLaK4NEmIHksRUkQyde6wYVXPAzMzMyOTGh5PK5C/H3M698QkJZEDWX00YBYYxbkV16RA/Bpai9bCEGfPcYj6SRlTEqOCwWl5bk3LlFIxVueNNmdIEarNsUAAkJpUEgTC6KSKthJBwwqFnIJIeQB8bhZgdtNQvPnDlji48/9dRTcuLkSVlZXbVGNPLRWMa4r4SEUsI0VogA5ZRrLWSo3TIyxIZiVs6r1+pWz6Jta3lpWU6dPqVEO21D+/GMxJOpoyUklBeBWCGAYU4qGGZ/vmyrmXuaiXFdDIzcs2eP7Nu3z4S6lp2mpKrVa9awbI3IWvdKSCgjcj7lEZQO/0IYoFUpOhz6TE8wDO1Fx9ybb75Z7rzzTjl06FUyNj5unXibjYbVuayXPANWEhJKjCG3nFHRqmMDGYt5ARwUaKQ4+tg12LSJz77rdTLXchtpJHJCuQCTogRaFbWVE8oiIduGZIuLi3L06DE5euSI9SNsad1qdW1VSGegJMtU2lBmJRTEitOqJW9hQpkAWeJWRJFURrYIzZaNjo0qaRijsmH9BpuqsTjASGPIZHNsZL4eMsX68BOfBSohoTRwdVRAMP8CqXKSmTgJs2ajaQmDPj0yHGilOIyfwZGYg+ZRVIJR96JbVHLFJ5QJThfdAkmgEP+2ai72APky2qzQREwCyjRrzPzEcBJGVJrWor6lWgpyod0gVqPZSJoroVSALE6sIbvMgRGH9ZtNGDrBW16GnCgYqowjAwLVG66ZarR30StD0ziBYww1gWw4QZjIJiGhNAjscoJBoyGpjFeWEkE++uVyJDCNdizqXeSmvgXhOu12PvEhRIslDAtKSLjxEYxCixmUAENyBYIFUhgBIRckwtzDUWHzwK+uyokTx+X06dOysrJsveSZ8cbMQs0b58tOSCgTzKFn4vtOKF/AxMSYFVWO5826HUYUe7sVmurIkSPyhS88KUePHpXl5RUbiWzODs1sBNvwyRDZT0goCyK54IrDOubmBINXTi0noJOrB7mcdZDmjGqsqLlo62qttaTdaXtm6mAD7/7EsJOEhLIgkssJpmyBTJkSrOjQcHYpguaCMDgpfEbdOJTEp7LudH2mXWZ8Ih8rn+hZoT7W93ISEkqAIbl83wzBQCoTY5azizxGrrGxMWuzoncGWgxP4ezsjM0Jz8Sf9CukoZl+hY1G3cxHa0hWSUgoCyK5NOYJKCozCbeahUDz6mbLtlqXpk5Hpian5O6775bXvva1cscdd8jc/Jz1ih8fG7eeG7jnzfGBpEbkhDIh8irnFhoLguV7Q3ZpHtNc5v3bWDdP4dzcnNyppLrzzrtk//79MjE+Ya552r6MVCOBpXq2szghoRxwXeSbwYgFwZxkm4jFpmFGbwubDz40JGMeMlaLOhaNyzQWw0rIhCPDxn/1vd0rIaE0gFMFfWK6KpJLt02wfKq56Pm+sHBWFs6eleWVZTMPo6s9KqfYI94Wv1NS2TE/lJBQDqCeApHYjGv6z7ngXCEOVyxNLUJbtnVlZcVmfsI0xPwDkAkN5kVF+CQ2ptVSnSuhRMCKQ2x6CyUBBIIjTOZk1tzALTpTQsoblJANOZmdnZO98/O2cgkH11bXzMnByv7Fjol4RiCWm4zJW5hQHvC+F/0OzOEJobyqFFb2h2CQSy08qk0ZHkBc7Iw8RpWBSB7rAV/3DrzM/ARzGXICa5O3MKFMGJKLKTHcB4Gmch9EQWupYPEZuTD1WHeLE0xTaYirvV6v2UxQTFpjx7QASEbhFExaQkJZEC02rDcAByAQRIpmIPN52kr/yic0WxaJYuJn2QENrACPaxgKBDF/QkL54BwgsFjYJULUd/2/kYv+UbAS4O1wRjqpovdD/9nxiESuhFJhyBwLPeqEytMtku9ArqHKA5uJ5XGTQC5I5eoxkSuhPMhpo/+cCf6fMKZvBXNZO1kK5IreDhwcZkNqHsgW+OVmYcifkFAO8PIHIkUm5YQqECxPU3KhnczFHitqQVM5mdzZsZ1ZyFiWhITSAkqE0BGJpwiR3KFBvQuPhmmpQC47YdP+0JmRzMKEhECoAqvyqAJK2T8jDCmQKRfPzgneNyOUA7GCpktIKCOGJHJ+DBOGRzLWOe6227Jw5oxNBcUqkqNMUhMIlmUj0u0x8ngga6221OpN2aiMSLXW8BISEkoFJU9gE8onjxOx+BDZoN+Vfq8r7daaMOpYbUBN1qxW1yILrdGaotIfMPtTpkdVcynpEhLKCKMS3NB/edzSN4c2WNKmUOt0VBiN3LMuHJaFk1V8rgBI5d7EvLSEhLKAV74o+s+J5QlOCf0XQ4XNW4hH0PpF9X0KNTuAq10VFA4OestbX0I9xzyJejw5NBLKBN55lyGpjFj8BYKFvxwZfQeZ0jp6APEaOpm8TyFkgmjscyokNG2WyJVQKgQCFWFkckYFnnliCJRcjM3yHr8sfBd7/o6guTSDkUvzeIddH+eVyJVQaigPIpk8tFg4MAzMn27aSgkGgWJjsk3+uQ6RfH4NMwv1FNIoMVErodwILApMMpLpv7iBLC7AgCKipYsMaCfSmZswDkcxhwYF4EXkzKS5EkoKp04kFPukxNSIDV9w3JwYIRMODEZUQixGWgIjnooxk9ISEsoKe/3hQdwx4gSihXREkTHJJ5iYnDDTEJc8aVNTkzI+TtqILC37ggztdsuIiJnIyOSEhLLBeBP+OaEsFhMtjLGMiWlsaSBNsUXF1fyDXAznx7lhWku34qTztHslJJQJkUg5efJ/HNA/E4/HtAwyxTYtEw5ppmj+FSelwbNICMH8aEJCWcAbH996CAZH4Irv2bE87siazVGbhAYtBZhHg4lBWbEfp0YcpWzu+eBRNDd8IF9CQplgr33+6oedQmAIca1zBRc8GgnVpWdTrxq2Z6m2Cu1czMrLvG1JcyWUF1u0ViDSZu3lMG9hTiTau2zmp7gucs21VuixwUSgmJFJcyWUDZFIQ7BTFEcxlmECMqmhTb+rWgrzkHW4MBch2dAspL7ljclpFHJC+RBIFLlEtBDPZRjxHhrGFRM8gki+qwKphgSLM/AmJJQRm3ik/4dbTBsic5e7mn9KIjusdKRXBo4Nb2Bm+ImSK9TLTDRuzEtIKC22Uul8emXWYbc64oeUWBCH2XYx//q9vjUqo6nIxzE6+dbD6pIJCeVDJNF2QhBChU1QYygketqG1BsNmZqaMucGjozYwAyxcIIkJJQHzomtkhuF7HrMQsTqXJFgBX4Z3AwcMSK12x1r+0KTES6eOxdyJSTc+GAKDGQwoKN7X7nCoGEfHWIVpIoTCoFPZgWSDpxzKnaAgDDMYagbVSzqYjYlgHkY02r+CeVBr981cYINbEiW4TzXw5BkZhZCJvaNVByP/zVAe2EWssRQs9kwk5CV/McnJixPQkIZ0OspuVSMXGgu+uMqT6w7RUFrAZSRaS7+hV0/GBhGAEN7qqXi2kMMQ0FzcQ4LkScklAWRXD3TXP2guZQkqrncLOQfcPIYuUJKTij9Uwn/tYCuFri6uiqLi4tybvGcxelJf542TEi4oeGcuDhxbHJobIImecOxr/IPqVjONS6CZ21dCQmlQZE8FxLgcVtCyHc9QpuWk0elQj9CPIbKQU0fGxuV8fFx7wJFWkJCwo5QhkRaGX+cXEaoYS8M2raY4np2dlYmJifNJFxP7VwJCReETQpqmxFJRVVZXPSOvoR4CG3hcRqS6ZVBRU01F4RLSCgLjCebJBxQbDYG416oc5HZ6lehLmVmoaaxCF6367NDWR/EkWrekJzIlVB6FAlmzNJ//mckM1e8z1vo2ghhFf+qhcylEdKUXHgPjx49Ko8//rg89/zzVmhCQhlQ1FoRBW4pXGfZ/0AyIxcnQC7MPhqJLW5aDMVWMW/h2tqarLVasrKyIidOnJCTJ09akQkJZUORYJtQ0Fwgd/lBMhZiYPBkq60kWl2VTrvj5mJ1xLo+MRL54MGD8qpDh2Rubi6cmZBQAkCoLaQyLpmovgqkipqLzRwasc9gSzXT0tKSnDl9RjXTCTl95rS1Sk9OMochLviq7NmzR+bm59OQk4RSAVoZtc7TWlAqhIFhMUWrW5pZE830C+Q6u3BWTp06LU899bQ8+uhjsri4JJ1OW5aXl4xs1NGSKz6hjNhKLceQVKa5QlLWVdMPc9AmoVGZ3jMrM3P7ZO+Bm2Ru737pDdblhRePyNFjx6TT7ah2W5ValZmiUq/4hATgCiuQCkSzUG1Cc7vjDaw3mmr2zcrs/F7Zu/+g3PSqm2XPzJy0Ox3VamtqFuKe72ndSxm8nsiVUB5s9RTm2MQppZQRzZGZZ3AHaSjZJqcmZWJi3Iac1Gw2KFY7UTOS3sGyGopJSCgHjGBGMidaJBKkcsAuZ1hmA7/WVdT8o7E4CunMrTE54QsyQK7izLwQbL2yYvGEhBsdRc11vv6CWWgtJ1XYY1JQX4cLTYRTI0ocaWzmogoNyTQsx3Yw2sB62QnLk5BQGkTTsMgw2BQAqSLo9m759b8z0/8Mka0mtHfRsKwCwZBB7XjImZBwg8O4AUsCcg45nUxpBc2Vm4WmkapoJSdMzeLe5cl6xgdQNoBckI2e84Pqi56YkHCDg9c/J1YOmBThcahm/NLN12LdAcyuax15mWk3sKtYJ2tVnpB+PREsoZxwbYUolYxR7AzDrKv1K7o89brUtQg70lchlPWB1JRYVcxBVKLyi4k5mEOAOlqntyK95uN2oYSEGxrbqy4FbPLQeJXvK7kqavoxVmtstCkLZ07Lo5/7jDzx+KNy5Pmn5YVnn5YXnzssy+fOyEa/K912S8bHx0yL1Wp1mZqalvXJz8t681goLiHhxgS1LdtMySjLtiWaI9LLHBreOyOTPpPRrCxJa3VJOq1V6aytaLgiA01XW1A21BRkACUFW4derZdJfUnWpz8biktIuEGxRXNty61oFhLVzepcUZWZt8P2yBRDO5TD83iuWFhv+jPS2/OwpSck3Igoaq5t4VRwBF6ESUGjkO4H8jTL7P8sAETIE6Oar7/nIWk1P8PRhIQbG+cRbMgNYjG+hVybxXIRZwtx2w9pcV/WN2QwsiAro++TtXoiWELJADf8XwFqFjqJfE2uIrFy8XwGAhfOsSTLo/+MYN2R47Iw+vsi+1IdLKGEMC4QepBrLnY9Tp4Qt1weWh6EtPA/7voh/on0K2dFDn1Yugf+WAbJi5hQAkCDGHrcuaDk0jBPdRK5xLTNyNNDhMDF7VA/tCGdqc9K6+Dvy8bNHxeZSCRLKAtggEPJ5RPKsxnyutowk0P39RiHLW/IZ7lCVieYrfug/yuyXj8nsv8R6d75+5Ld/ydyqv7Hcnb909LNmNwmjWROuLFR+b3v/4sbjCumX+ELLzxniZMT4zI+NmrtX/TIYIq1drulx5+XN7/5TbK6smI9Nuh7WK0xWWjTFmdgQGVlJJOpmT2SjVSlvzGQ5uiYXqUijeaYfOrTj8ip0+dkcs+c5mvKhkq/UpNzq23pKCNPLyxKJavJBjP+qrBAC0NhwLpqQ+JMqW1jy+g4bKtNMEVB1+5nsO6L9DE0pt+HvBt6bz6/4kA/B739caVaP0r6T7IWNGPXtCy6dDGHCO19Y82GrOvnoYsX9869MFFqt8NKF30Z1XtgmoOO7qOlKU9z2cQ+zO3IPCOxJwvCKAJGGdAbJvbN5LiZ0hGapgn2WbQwe/bDxd39B4vj3O/Y2Jier3VcLY8OAIBJhFqttn3GKt3WKt5FjWfGc6zoecw3OarfByuGWplaHs+M3jl8Hu6VtEa9Fq5rZ3r3N936epzzRvX6EcxtyZAl8jOolro7/VL5zKRxf4SUphE5e+aMHfc8VX0e/vn4rNxru6OfQe/H+7yGeVo0y0DL5TulXFbY4Tzfz2wKCuZ44ftp6TtIBweGS/GZeD8Yac9zsR99PZ9Zo/ER6EO074E410dpsPZcY7Sp36m+Q+H5scrPOu8TpwzwT+j3GJYN8s/gHdqt15I+A+7bpoG3Dx7EPgWn6A3ZqYQq1sdQTybe15tkuD9k4qFqklRUY/mZoQzdJx2laGEQPocGFu/rDi80Lx0vbk0/NC+2laMZ7Np8aL1JPkA18wed3y/3ZF+gWPetpeUlJf1qfq5fifz823IeD0PLBdZXUh+ifU49zj3wwtiD5YYNfi9eov+PfS7jfdpRP2SIS8wwmgCQj+twXX4Y4gsYbs7yAIrgPvxB+D1zv/ZsCvkuCLIV7sVgz2R7hEup6D8LSQBhPw+3wIr0cgtRu8/8XkNaCC4O21wrDnNiiBTT/NkPiX7vvMwsEHJu4ZwTiO/CSEMY4ha6nI/zL0a2+F7wOfjB5HuM5W1zRnhExSP6Q0iCPVPS7ZgWwEZBusXCa/w6a5xfS6Zc44ORJy8Qk5B7V/HP4AUS5deMl5WDkMXTVJPoLyHE8JeO8ynPC4hf0Egkg92p+L2EXwa/QphzEaJpnvgQ/R78XsjjfSP9Hrk2n00T7DYtruA6PEQ+axzDRrn8+sX75BzuwV54Pca5OQlDWRALrcE9Mh1d/GJIi9cC9vn0hXGyh/sLx7lnfwZ+neLnswvxR34TP+M8aNbh1Tw+3C8cCUXkReWIeTT0v00o7tsz17B4Pp+h+HkvB3Z/uvFjjBXFjzzPGc3DcyCdOyLODxjviz/XMIN0kHiHfFYL838O7pbvk+8KK4VysXrQXizAzw/v5k9U2NNy/Dt06PX0lvWixUTy87BIs2EoaiYwC6+9aHohLshxzELy8H3bd24E83KGacObVY7lHzKaTT1bY9ZNEo1Yfn6loQ7EsvvSgux+NJ374bo2elrzc7yppsfExISaM2rOaT7IbAWFz0SQXzeWRfn6Ypv5xVNRkG4E0JC8XI9y+EXE5MNkcNLwHP1LtGfFNdjsXvVjaB57RnZEk/hceoz75Rhl8GPDdUj3qwPuLUS5hoq/JJpHxRLt3kOGLf9BjHHt/PoxNvyXIz/T7oM9T4nnbsnuIG1TeiC93bw/B3sWeeGXB4qhfBP9bnmO+f0p4oBekuwZm4R8prkQP5/C7N4Um25vmzSuYd+VaksnGQpCvxN+2EP+eBv5Zy5A36GY0R8t1483Qkqsm2DT8yVHcJ696FwopPntUECMexQTkheTPbPfKUdt1nUl1EBfXH1iFt/g5jXO7x23RLn+gKxAIx2JVk/gV0SPsZ/ZvfkxPgAPE/gnCjFeUN2NDyH+shGPn5cXHw2FLR+v6aU4kchvhOKccI/+z8u1YwqIw5dhonE+Q9RMlMoPQATE47j9OvJ5LMdmkD3eox3lc9gRh90G4jdE0s6gACuPwErjRD/Xzh8iZDVYaOd4JIaA04r3Fsvz+7lysDLDO6ixnGh8L1Gz+3X9nuI9oP15/vZ929kBlsnLIp3/fAbK5IcXC8neK6AZrA9ufH8D/AmEMrgWGQNUCeiLCUG4kCF8iTx9TeKmiMNgVCKAIOYICC+nf1OcY6dTguUjRJFRAcYJMDE1JXtmZ2RmZlqmp6fMcdJs1GVCjzG0hY/Bx+Ml9194vZ6V6/di0Cgf3ut78dfJr2jXL8A/kif6h1bRP/Lxy0b5fC7KsDx6AnH/rFFcA9lU3/qZQfGaPB8KZON8QnMikKZiZWt6/gJQgKbb3XAuEkB+Co3nxjTuA8LH+zRsPnWImMbpXpzDyuPu4v8hOGXTa+GZXHLEnS1hDLAW9Br2kXTfytv2Bi8NlBV/oPxOuXC8Fwcf0Z8dO57m93I+Nt1bjGrIjx31OJ433xkKxEkVTHPduMbw/OE92H0VytUfcE0KjAd2g2zcpD4wfnnx4KytqVnUbtsX7B/Qf4H9w+heuIYF8XqE+j4w0pn6y+hoU6YmJ2VaSTYxroTT/bHRhnkmm2p6Kr/oSaxKjZvgZC/I7kyjFtq14/WcIGTlQdivTPgc9nlUrJh4Mvdqv3YFVa/k4XPY+Tw8ii6YEabF9DPzi8VB7Pz8JdfjPDvy8WNA6Mlenpm3hJAyv5/wzMio+xw3s5xd/tv1Qx7NxLVsfpPcJPWcQwmwdAcxyrerhHJACALiXvjurTjinjrE5rO2Ih7lfh3D8vxerwwoy8Ru1FJ0381631PYZw3Cnflffo9g6z0NywP+48oqqqyJ4NaWpup3HL8njvPjGcuJHzu/v0JxqrRc+3hiOMJN6Vm8hHypeGe4GCEVSTumLxkVPC7EefwW24XsXMoZCqTEo4OrFNPPvggV4piDEKo2UpGafgjcyAzONEeGnm4l8E/zULyl5YKuI5V0HoB/QIOGHvPzPBbE7l/TjUR2yEA69SuWTYKEXqY/1Kh1KJ94NAG5B8w5iGqk0/Isj37pFE2ccnAHQ46cmAquVxT3MA7T9Z/mx0PrrmS+DxA+oUPLNjkPhQ9WBOUS5P8c9tnyGIeGB8MpOfLdTemc4ZoL2Pew7X1dPqJZZpcgHm6Qb5zrmlicPP78+Q4JY7489KjlBXw/LJO1vLxs7yzfGeD75v3iSvbdbIdQRkRGncdviFdcT9RQrVgZbGTSW69IuzeQlbW2LK2syqpelHYCnBuQqtdT9bnelfWKkibra2nKaP0hiT/URgQuomXWRmpaKmEmo6qlRpsuzTqDNdEY/Nqr+aUn1aoqmk/5ZloMzUE5ePGM1Lm2CYTSOzbNEfLxWWLIHRT0gmkTXPsjegwC4PkjjXMhP57Q1tqqEkw/q57g3srwBek+j1d3LQ3Y49aXHvLwQ8FLZp9db54ySUNL0hYz0JDjnGvOGo27Y0YFomt+u08KsJz+RTrxeA6UbTfh96L/yBmSQhpnsu+bH/Gy7B/nqOSfByFPSLczLGTfj5EWcvl+OB7+DHp7Co75Szy8BpliLhD3ET0p3Jil6D//xjzOO5FnVQm3r98d36k+D94Dfab+g63PDzNJQT4XTnTYT6HepKVYefovD/WbKOwToESszdGeuX/fJvq92mtF6XqA18A+Y+FqVhTHmP/d7Em1LVFC+nrrLY4osZRgFlbk3PKqLCwpk1sdNen2yOzsnH0YZt9V3Sa9SkfWs55ktQ2pN5Uso5iBWqZegJeYG6zqiwyR+12mztab1QcHsdRa1IdD46q+iBv8unftwembKBv8Wvf5gAMlAfavu74pcqRKLlfP9lJqHvtweipp0WNIGr9aTjzXKJCNl4GX1kw33e/oZ2vpLxUH7IXW8qwwFQaJsm+/fHqMQaV6QUszR4xuPIu+3itpkIaHDoE4TsMm7mOeGUVYmdyAgjKd8Ep0/Q7snpTwHDYTRCWalpwRtRtk0wsV9tHCiBORj09+7o0yvH7pxznRX6EgBDwfygvPkR81QuDPY3jPFBzT7B4pW81nTbR7jT9urt29FNo1zUOqm31nmpcfRH54aKC171DTuAd7RvpZ+EzrGxDHLmjlAPshDg6xdX3u9gPIAftoPH2eR9jVzZ8x13SHGUfYjI7ch4V+DmfQCI3n2T+F5rTn5vXv9XV+2P0HMRKL+7XPQdlWPqXo5/c2G8uVe6yYH76jL3ZLf8nbtN6TEXWkYLEGzEMeKPWoegNPIh+Ic/GOKeG4sJZp3kS9TNQSXGaz6ENSelYzPjTeQiWZ7SsZ9Rg0r+jN+i+UEk8/gJ6mGH4JXDm+CPmxEDqKx0J+Hgg7+jQxexfPLcq5cwtmvqKVa9EzyoPXFyA3x/SeON9+kfUYWSBGXT9n7FHAPvfl98jLhiZG27tDhH0OQwS9Af8MUThGaNfSl0LL4hwr04r0N8Bf8iAat7Is5Jr6XLWcqDU4M35e7t2hYbwO9+mJYd+liJjP4ddAiEfvWaNR12v6D1WxkdyOa2Y+h7dPcmIsI96nl29FKuxalhalcN8In1NDbCw/L6Sb+Dn8t9B3FH48XtPF791MRp6ZCj/gE+Pj1iuJ69i19Ht0aFzz2A+ylcszd8JSnlkjGroFovdHGxZfIgW7falnaYFWadM9LtJsNK3LDW55PCltJZgTSF9/zUe3l7icq7mylZh80ZhKqyvLXMdeMLSX/crYB+Oh6PWUkBW9QUhVU1KN1tRsVK3XVKEOVlFi9dWkardWpachD5Q56xE+oP+KDQnLPVuahnE/j4eXnXpdvA+Iwz2uaZ0SM6Ber1r3H3sR9MZNM2keTFQvT4mvn0VPtReHz0V+vJ5+HqYmL1nIq3HSR5sNfZbhWCgrfiGmuSzUzxteHK5HXq5hosc4h8/NNbg/CIuFYNdUYZ+VQPnOTNNTroWhbJ57/jw0bmV6uS8p+k+LCtaIn0eZvCtodq7Hi8YvO1+4HrHPwXHuwe5LxT6/Xd8/X/zxsHL1QDy2SfSfZvHrhnIRuyeOEy+8B/pJLb9/tpDH8insR83vy37cCMOPE0J+HGxVtYzMpNd3wn5g+YEP70K8dvx8WrQ9C/tsXN/uQa8XffnR5UhfsCZTV+vLQB8+XOjWiEyPBc1j6twKdM+Kq0Ld50PYg+LFC79e1ZpV9AEfzF8Qfts0P2wn1A8IYer6BEbVTBzXetjkWEMmqJPpiwPpep016Wg9qKf1oCovFx9EhXDEHqq/jHl5dn/+q5Y/+BgP98GD4MvkPB4uK7dYnzzd5WWt6z7nbagm1qeqz8jPp9x4XX9pvTyvI/p+zV4WzavPh3O0KDtOHP3PeXZu8Z4J9b4pqx6IQll8mczGhWAC6UP3z6YvMs+Qfe5Pb9TC+Fz9vqLw3PnC/Vn7i+jPzI5zH+Feisdt3+Kax465eJl+Pp+D+7VnGsTKRdjXCOfw+Rv6mfLy7Bh1cM4J+U2G18nvQ4VjnGefPbzgxbSY375zO4dj5PF4vH9+jLiPhv6Ixh8nfvSikD4xPirjo02Lcw0+H3H/8eS7DeURhmds17RrUKmK1w12sXVA1Fx0jJ2cmLCOkJiCeEyWFpfMPUljMOSCiHRWJY4ZhVbDRuVXCJbjGIBELODAXPM8RH4neBcgIlckxV4EFUxAiIXmqqvUlFANzTSq5uaYpo/ph67SEbXbMhLy4pMXx4e9uCqazU1JLW9E8yLs56J5MDPd7CQ/hNDPrfeBGTo5MSaT+lD1UtLQDFyD8/xhKaH0QZKPffdscl3dD1rXQjVtOaduDhleKk/jZaAMUbOX++I417Drh3uN1+G+xpp1fR76jPWa6/qD0m2jtdUU119RyuRYky9bb7bZqMqomuajGtoLY9f2Z8H5w8+vz4ZrWJx793v0Hyr/LJYnHOec+BntGGWSrnH7DjhXxfb1QswOZtfTPFpZth8lrWXb58Lkt+9Dy/DyvYwG5egJ8XnF8ob3OBTb57ge44eFsvN7I79J8b5jeXxGv6a98JyrYXzulpaTQUO+A73YuCqX8dGGvWM8Z3PC6fPlh5PvwPLpdfgMCNe156vC80f0MD9++mugv7qQBVsZ7QVpMPOOHT9mayAvLi5a/YS8aCjvDqUXsovpufoCtVttOXvmrBw/dkyWl5bsWOy1jfmYazndR/NhtsQvt65lcWMDfZn6+jKtd9ekqTc4rR9wbmpC9ow3lTh9ffH0JdIPzBeCCdnQPPWRDWnyBfEAhRdcv0gty0KVmh7PvwQ+vMYpg1AvZHmmJ0ZldnrczFErX8+B6JSv763u6wODiPrl2A+AfYF8WX3JqCti3qqM6HE7nzxarpOra/dV0ReQNI43la2UbS9DuM+RilaaOy0nqZ5fGXRl0Gtr2LPrNfUf92cvdshfyyJZ+aHQyr+eQ37/7HqcUMuq25evPyxcj+cdzvHPymfRNBXO4979M4a8PGMNa3quvVCcZy8VP1jcg36hOKLsWaj51OvYDyGhqlz7Tu1z8Jw0T12/c7tuuPawzHgd/47sWJB4n9y/PR/NY9+NpXl+7iP/fJrOu8VxXnT/POv6nmi1o/CDxI86gnPNfuA1L98j+1hRGoSyICDk0c+YX1/fO75H7k3Lpnx/fn6OBgwb8Eq7Dz1QEiiBcHfbMq6qtfB0oeEgXoTXBfRSvX7eoo3WwjN2bmFBybVsx9yb5N42dw4owZRderrerP+yoKYr+iLwyz7QX2hEK1r2kCf0IUzqhxzTO+YDTI3W9QHxUNF21M/URtZPMgoBMn5R+qb5qhrW7aE7GTiXlw3S+JfiaRADYs5Mjsncnkm7ToMHpWVwHfa5BmnVipKH8ilX4/bC6hcB4Si7qr/YVT0vfumcX7N0Xij9YvQ46Whk+zL0WGPEX2a7ppbbWjknG/piVvpt/cHXOqYSk885o+Sf1h+YCX0hxrSQht2TlqVv0rimjetzokyemwzael96L+F+7Hlw/3qfvAB2b9wjL7TeI/H4jOyeQpxnxH2xb8+Le1XhecSXyi0LvwfKMMLb8/dnwg9Lr7Ui3dVl++HgB6Ne9R9Du65+ZvsuuQ/uR+N2j+GaQ/H7pUy+M7NuSLd79udr98+9azo/QPae2Ofj86jwLLj/8J2OKtHi57D74fvSfHwP47ozNda0z8Uz5oed6/Ljad+XfW8q4TvkXD4D98N72MjW5f8PH0423d8n9YoAAAAASUVORK5CYII=;" vertex="1" parent="1">
          <mxGeometry x="310" y="40" width="215" height="689" as="geometry" />
        </mxCell>
      </root>
    </mxGraphModel>
  </diagram>
</mxfile>
